<svg width="37" height="37" viewBox="0 0 37 37" fill="none" xmlns="http://www.w3.org/2000/svg">
<path d="M5.0293 5.50317H8.6148C10.0961 5.50317 11.2969 6.70397 11.2969 8.18527V19.7161C11.2969 21.4162 12.6751 22.7944 14.3752 22.7944H25.0354C26.3111 22.7939 27.4542 22.0066 27.9096 20.8149L31.639 11.034C31.8515 10.4774 31.5726 9.85387 31.016 9.64137C30.8931 9.59447 30.7627 9.57037 30.6312 9.57037H16.0214" stroke="#1D1D1B" stroke-width="1.6" stroke-linecap="round" stroke-linejoin="round"/>
<path d="M15.5833 28.1701C15.5833 29.4551 14.5416 30.4969 13.2565 30.4969C11.9715 30.4969 10.9297 29.4552 10.9297 28.1701C10.9297 26.8851 11.9714 25.8433 13.2565 25.8433C14.5416 25.8433 15.5833 26.885 15.5833 28.1701Z" stroke="#1D1D1B" stroke-width="1.6" stroke-linecap="round" stroke-linejoin="round"/>
<path d="M27.7952 28.1701C27.7952 29.4551 26.7535 30.4969 25.4684 30.4969C24.1834 30.4969 23.1416 29.4552 23.1416 28.1701C23.1416 26.8851 24.1833 25.8433 25.4684 25.8433C26.7535 25.8433 27.7952 26.885 27.7952 28.1701Z" stroke="#1D1D1B" stroke-width="1.6" stroke-linecap="round" stroke-linejoin="round"/>
<path d="M30.4504 14.1477H14.2646" stroke="#1D1D1B" stroke-width="1.6" stroke-linecap="round" stroke-linejoin="round"/>
</svg>
