<?xml version="1.0" encoding="UTF-8"?><svg id="Vrstva_1" xmlns="http://www.w3.org/2000/svg" viewBox="0 0 36.4586 36.4586"><g id="Group_293"><path id="Path_112" d="M5.0293,5.5032h3.5855c1.4813,0,2.6821,1.2008,2.6821,2.6821v11.5308c0,1.7001,1.3782,3.0783,3.0783,3.0783h10.6602c1.2757-.0005,2.4188-.7878,2.8742-1.9795l3.7294-9.7809c.2125-.5566-.0664-1.1801-.623-1.3926-.1229-.0469-.2533-.071-.3848-.071h-14.6098" fill="none" stroke="#1d1d1b" stroke-linecap="round" stroke-linejoin="round" stroke-width="1.0219"/><path id="Path_113" d="M15.5831,28.17c0,1.285-1.0417,2.3268-2.3268,2.3268-1.285,0-2.3268-1.0417-2.3268-2.3268,0-1.285,1.0417-2.3268,2.3268-2.3268s2.3268,1.0417,2.3268,2.3268h0Z" fill="none" stroke="#1d1d1b" stroke-linecap="round" stroke-linejoin="round" stroke-width="1.0219"/><path id="Path_114" d="M27.7952,28.17c0,1.285-1.0417,2.3268-2.3268,2.3268-1.285,0-2.3268-1.0417-2.3268-2.3268,0-1.285,1.0417-2.3268,2.3268-2.3268s2.3268,1.0417,2.3268,2.3268h0Z" fill="none" stroke="#1d1d1b" stroke-linecap="round" stroke-linejoin="round" stroke-width="1.0219"/><line id="Line_56" x1="30.4506" y1="14.1478" x2="14.2648" y2="14.1478" fill="none" stroke="#1d1d1b" stroke-linecap="round" stroke-linejoin="round" stroke-width="1.0219"/></g></svg>