<?xml version="1.0" encoding="UTF-8" standalone="no"?>
<!-- Generator: Adobe Illustrator 23.0.1, SVG Export Plug-In . SVG Version: 6.00 Build 0)  -->

<svg
   version="1.1"
   id="Vrstva_1"
   x="0px"
   y="0px"
   viewBox="0 0 183.9 187.9"
   style="enable-background:new 0 0 183.9 187.9;"
   xml:space="preserve"
   sodipodi:docname="equipment.svg"
   inkscape:version="1.1.1 (3bf5ae0d25, 2021-09-20)"
   xmlns:inkscape="http://www.inkscape.org/namespaces/inkscape"
   xmlns:sodipodi="http://sodipodi.sourceforge.net/DTD/sodipodi-0.dtd"
   xmlns="http://www.w3.org/2000/svg"
   xmlns:svg="http://www.w3.org/2000/svg"><defs
   id="defs21" /><sodipodi:namedview
   id="namedview19"
   pagecolor="#ffffff"
   bordercolor="#666666"
   borderopacity="1.0"
   inkscape:pageshadow="2"
   inkscape:pageopacity="0.0"
   inkscape:pagecheckerboard="0"
   showgrid="false"
   inkscape:zoom="4.4278873"
   inkscape:cx="92.030346"
   inkscape:cy="94.062918"
   inkscape:window-width="1920"
   inkscape:window-height="1017"
   inkscape:window-x="-8"
   inkscape:window-y="-8"
   inkscape:window-maximized="1"
   inkscape:current-layer="Vrstva_1" />
<style
   type="text/css"
   id="style2">
	.st0{fill:#B3B0B0;}
</style>
<g
   id="g16">
	<path
   id="path241_1_"
   class="st0"
   d="M59.4,167.1c-4.4-1.1-5-1.4-7.1-3.4c-5.3-5.1-10.2-12.9-12.8-20.4c-2.1-5.8-2.9-11-2.9-17.8   c0-8.9,1.3-15.2,4.9-22.9c1.7-3.7,1.8-2.7-1.5-11.9c-4.8-13.1-8.1-30.5-7.5-40.4c0.2-3.8,0.5-4.7,2.3-8.4   C40.4,30.4,53.8,22.5,74,18.7c8.6-1.6,23.9-1.6,32.4,0c20.3,3.8,34.9,12.7,40.2,24.5c1.1,2.4,1.4,4,1.6,7.5   c0.5,9.5-2.9,27.2-7.6,40c-3.4,9.2-3.2,8.1-1.6,11.8c3.6,7.8,4.9,14.1,4.9,22.7c0,8.6-1.9,17.3-5.3,24.1c-2.1,4.1-6.1,9.9-9.3,13.2   c-3.3,4-3.4,3.4-8.3,4.6C99.6,171,79.1,171.9,59.4,167.1L59.4,167.1z M110.1,164.1c2.7-0.5,5.7-0.9,8.2-1.5c5.6-1.3,7-2.8,10.6-7.4   c7.9-10.4,11.4-22.8,9.8-35.5c-2.3-18.8-15.4-34.9-33.3-40.7c-5.1-1.6-9-2.2-15.1-2.2c-6.1,0-10,0.6-15.1,2.2   c-18,5.9-31.1,21.8-33.3,40.7c-1.5,12.7,1.9,25.1,9.8,35.5c3.9,5.2,5.1,6.5,9.1,7.5C76.7,165.9,90.6,167.1,110.1,164.1L110.1,164.1   z M84.6,145.1c-8.5-2.2-15-9-17-17.5c-0.9-3.9-0.9-6.7,0-10.3c2.1-8.1,7.6-14.2,15.4-17.1c4-1.4,10.8-1.4,14.8,0   c7.8,2.8,13.3,8.9,15.4,17.1c0.9,3.6,0.9,6.4,0,10.3C110.1,140.4,97,148.4,84.6,145.1L84.6,145.1z M95.8,139.9   c3.3-1,6.9-3.5,8.9-6.2c7-9.3,3.8-22.6-6.6-27.7c-2.9-1.4-5-1.8-7.7-1.8c-3.4,0.1-4.8,0.3-7.7,1.8c-8,3.9-12.1,12.9-9.8,21.5   c1.5,5.6,6.4,10.7,11.9,12.4C87.4,140.7,93,140.7,95.8,139.9L95.8,139.9z M54,85.5l2.7-2.5l-0.9-2.7c-2.5-7.2-5.2-21.5-5.2-27.2   c0-3,1.5-5.4,5.2-8c14.5-10.6,44.7-12.3,63.1-3.5c7.8,3.7,11.3,7.3,11.3,11.5c0,5.7-2.7,19.4-5.3,27.3l-0.9,2.8l2.7,2.5   c1.5,1.4,3.8,3.7,5,5.3l2.3,2.8l0.7-1.3c0.9-1.8,3.4-9.5,4.8-15c2.8-10.7,4.4-23.3,3.6-28.3c-1.8-11.4-16-21.2-36.3-25.1   c-4.8-0.9-7.2-1.1-16.4-1.1c-9.2,0-11.6,0.2-16.3,1.1C53.6,27.9,39.4,37.6,37.6,49c-1.1,7,2.1,25.8,6.7,38.7c2.3,6.5,2,6.3,4.7,3.1   C50.3,89.3,52.6,86.9,54,85.5L54,85.5z M68.7,76.1c5.3-2.3,7.9-3.1,13.3-3.9c6.1-0.9,10.7-0.9,16.8,0c6,0.9,9.7,2.1,15.8,5.1   c2.6,1.3,4.7,2.6,4.9,2.4c1.2-1.2,4.7-15.9,5.4-22.8c0.5-5.2,0.3-5.6-3.7-8.4c-7.9-5.3-20.4-8.1-34.1-7.5c-11,0.5-20.3,3-26.6,7.1   c-4.1,2.7-5,3.8-4.8,5.9c1.1,8.8,1.5,11.5,2.9,17.1c0.9,3.6,1.8,7.1,2.1,7.8l0.5,1.3l1.9-1.2C64.1,78.3,66.6,77,68.7,76.1   L68.7,76.1z" />
	<path
   id="path3766_1_"
   class="st0"
   d="M124,151.8c0.4-0.5,0.7-1,1.1-1.5c0.6-0.8,1.2-1.7,1.7-2.6c0.8-1.2,1.5-2.4,2.3-3.6   c0.7-1.2,1.4-2.5,2-3.7c0.1-0.3,0.3-0.6,0.4-0.9c0.5-1.1,1-2.3,1.4-3.5c1.2-2.9-3-4.6-4.1-1.7l0,0c-0.4,1.1-0.9,2.2-1.3,3.3   c-0.1,0.2-0.2,0.5-0.3,0.7c-0.5,1.2-1.2,2.3-1.8,3.4c-0.7,1.2-1.4,2.4-2.2,3.5c-0.5,0.8-1,1.6-1.5,2.3c-0.3,0.5-0.7,0.9-1,1.4   C118.6,151.6,122.1,154.3,124,151.8L124,151.8z" />
	<g
   id="g14">
		<line
   class="st0"
   x1="85.4"
   y1="125.8"
   x2="95.5"
   y2="125.8"
   id="line6" />
		<path
   class="st0"
   d="M85.4,127.8h10.1c1.1,0,2-0.9,2-2c0-1.1-0.9-2-2-2H85.4c-1.1,0-2,0.9-2,2C83.4,126.9,84.3,127.8,85.4,127.8"
   id="path8" />
		<line
   class="st0"
   x1="83.1"
   y1="119.5"
   x2="97.5"
   y2="119.5"
   id="line10" />
		<path
   class="st0"
   d="M83.1,121.5h14.4c1.1,0,2-0.9,2-2c0-1.1-0.9-2-2-2H83.1c-1.1,0-2,0.9-2,2C81.1,120.6,82,121.5,83.1,121.5"
   id="path12" />
	</g>
</g>
<path
   style="fill:#ffffff;stroke:#ffffff;stroke-width:0.225841"
   d="m 81.867485,170.12987 c -6.103653,-0.25494 -14.194451,-1.32446 -20.250194,-2.67687 -6.622685,-1.47902 -7.349547,-1.82998 -10.345915,-4.99544 -5.902842,-6.23594 -10.930899,-15.3423 -12.989315,-23.52506 -1.105849,-4.39605 -1.295409,-6.01361 -1.411384,-12.04375 -0.192644,-10.0165 0.816813,-15.37703 4.429889,-23.52406 1.086806,-2.45061 1.383447,-3.3589 1.383447,-4.235995 0,-0.824899 -0.528043,-2.62478 -2.02182,-6.891565 C 36.928739,81.573002 34.752805,73.000747 33.44391,63.800178 32.427241,56.653732 32.282047,49.578825 33.086975,46.407683 c 0.510972,-2.013055 3.057836,-6.957531 4.716601,-9.156797 2.770548,-3.67332 6.892497,-7.195757 11.742343,-10.034496 7.262625,-4.250998 18.873828,-7.858128 29.196855,-9.070279 4.299533,-0.50486 17.695717,-0.573944 21.982466,-0.113364 11.15054,1.198046 22.89684,4.938176 31.14963,9.918328 7.4666,4.505722 13.18095,10.876453 15.273,17.027335 2.69361,7.919546 -0.4572,28.494469 -7.23732,47.259983 -1.07356,2.97132 -2.00838,5.879047 -2.07738,6.461621 -0.11073,0.934902 0.0271,1.414106 1.17455,4.082936 3.64325,8.47394 4.68035,13.3571 4.69524,22.10731 0.02,11.7669 -2.59171,20.9198 -8.48992,29.75308 -2.28635,3.42408 -2.89501,4.20972 -6.20285,8.00643 -1.60901,1.8468 -2.38143,2.54799 -3.28152,2.97889 -1.55583,0.74484 -5.19898,1.52299 -11.67879,2.4945 -11.71356,1.75621 -22.330299,2.41821 -32.182395,2.00671 z m 12.985877,-4.3704 c 5.692148,-0.29676 11.582978,-0.94965 17.464248,-1.9356 10.48043,-1.75697 12.21978,-2.66202 16.76946,-8.7259 5.55757,-7.4072 8.9247,-15.81725 9.82696,-24.5447 0.3286,-3.17859 0.14707,-9.68705 -0.35323,-12.66409 -1.72751,-10.2797 -6.56345,-19.759463 -13.77639,-27.005503 C 117.62062,83.687023 109.16454,79.229071 99.031427,77.30699 96.555709,76.837387 87.091304,76.644349 83.985915,77.000117 66.726226,78.977468 51.43704,90.897562 44.857273,107.50645 c -2.219765,5.60322 -3.305526,11.57464 -3.298058,18.13851 0.0066,5.76436 0.638528,9.77771 2.388316,15.16711 2.62226,8.07666 10.055538,19.14122 14.153259,21.06737 1.483079,0.69714 3.181576,1.08661 9.012815,2.06668 10.533958,1.77048 18.532678,2.29336 27.739757,1.81335 z M 134.7877,92.47745 c 0.79146,-1.60385 3.01353,-8.345935 4.31462,-13.091261 1.66439,-6.070315 3.03234,-13.109091 3.88493,-19.989917 0.45174,-3.645838 0.40238,-9.934462 -0.0922,-11.74375 -2.62998,-9.621316 -13.6513,-17.831831 -29.84584,-22.234159 -2.90921,-0.790838 -8.41248,-1.86162 -11.19478,-2.178188 -3.789679,-0.431188 -20.204557,-0.356974 -23.660727,0.106973 -16.0585,2.15565 -29.977648,8.510106 -36.501473,16.663879 -1.690438,2.112787 -3.319729,5.227188 -3.866679,7.391184 -1.670701,6.610098 1.033066,24.286287 5.986451,39.137116 1.768869,5.303277 2.306962,6.507305 2.908181,6.507305 0.244812,0 1.666368,-1.371894 3.484155,-3.362435 1.68884,-1.849338 3.83814,-4.057576 4.776222,-4.907193 0.938084,-0.84962 1.705606,-1.690486 1.705606,-1.868593 0,-0.17811 -0.41331,-1.594251 -0.918467,-3.14698 -2.611971,-8.028553 -5.078423,-21.294207 -4.916024,-26.440514 0.09297,-2.946288 0.54923,-4.024708 2.546257,-6.018417 4.685946,-4.678163 13.98765,-8.576834 24.40837,-10.230406 7.816291,-1.240297 16.968424,-1.289288 24.725658,-0.132355 12.56063,1.873325 24.22802,7.585057 26.82792,13.133527 0.56512,1.206024 0.60985,1.512408 0.5862,4.015735 -0.0513,5.429801 -2.56551,18.233156 -5.14868,26.219066 -0.44578,1.378149 -0.81051,2.605992 -0.81051,2.72854 0,0.122546 1.43349,1.637314 3.18553,3.36615 1.75205,1.728833 3.99821,4.140812 4.99149,5.359953 0.99327,1.219139 1.84001,2.182551 1.88165,2.140915 0.0416,-0.04164 0.37559,-0.683416 0.74213,-1.426175 z M 63.094067,79.167875 c 3.583971,-2.23379 9.76304,-4.851085 13.849817,-5.866427 6.99156,-1.737021 13.993073,-2.07001 21.410019,-1.018254 6.267757,0.888799 10.257367,2.197195 16.968807,5.564948 2.25138,1.129726 4.01742,1.885375 4.22244,1.806699 0.70287,-0.269713 3.07826,-8.905281 4.42329,-16.080504 1.25954,-6.719191 1.47709,-10.551418 0.68691,-12.100294 -1.0618,-2.081296 -7.17055,-5.654117 -12.86389,-7.52369 -6.04434,-1.984838 -11.33751,-2.817913 -19.084412,-3.003643 -9.133675,-0.218975 -16.625747,0.738084 -23.551731,3.008568 -6.533389,2.141785 -13.047767,6.366314 -13.495244,8.751576 -0.173629,0.925527 0.776318,8.469215 1.624454,12.900055 1.136092,5.93518 3.479074,14.566766 3.954041,14.566766 0.132967,0 0.967943,-0.452611 1.855499,-1.0058 z"
   id="path949" /><path
   style="fill:#ffffff;stroke:#ffffff;stroke-width:0.225841"
   d="m 86.585908,145.42191 c -3.566881,-0.59665 -7.792217,-2.53946 -10.776006,-4.95479 -3.695568,-2.9915 -6.670833,-7.65279 -7.996535,-12.528 -0.543484,-1.99864 -0.613158,-2.64807 -0.605729,-5.64604 0.0075,-3.02182 0.07464,-3.60709 0.621931,-5.42019 0.732046,-2.42518 2.244558,-5.65895 3.561904,-7.61541 1.225119,-1.81949 4.202889,-4.79726 6.022375,-6.02238 1.878691,-1.26498 5.227945,-2.85776 7.050813,-3.353093 1.178319,-0.32019 2.359196,-0.397827 5.984795,-0.393472 5.259366,0.0063 6.159362,0.183549 9.743254,1.918685 7.4778,3.62038 12.34345,10.49566 13.43137,18.97885 0.65664,5.12018 -1.42634,11.81408 -5.10504,16.40569 -3.43234,4.28411 -8.40571,7.3335 -13.778598,8.44825 -2.163274,0.44884 -6.0416,0.53535 -8.154534,0.1819 z m 8.154534,-5.20594 c 1.8369,-0.29951 5.128111,-1.92859 7.162638,-3.54535 2.8671,-2.27838 5.05184,-5.75012 6.06316,-9.63487 0.55603,-2.13586 0.66326,-6.03702 0.22349,-8.13029 -1.28941,-6.13732 -5.74038,-11.42075 -11.482536,-13.63009 -2.239212,-0.86156 -3.92481,-1.16346 -6.468597,-1.15859 -2.698834,0.005 -4.788893,0.47103 -7.112809,1.58541 -5.41004,2.59426 -8.964498,6.86777 -10.401286,12.50542 -0.575108,2.2566 -0.617146,6.20994 -0.091,8.55772 1.350037,6.02415 6.629542,11.70638 12.335039,13.27598 2.227703,0.61284 6.604722,0.69108 9.771899,0.17466 z"
   id="path988" /><path
   style="fill:#ffffff;stroke:#ffffff;stroke-width:0.225841"
   d="m 82.770851,121.34098 c -1.434656,-0.34707 -1.945051,-2.09188 -0.913631,-3.1233 l 0.554338,-0.55434 h 7.924978 7.924977 l 0.554338,0.55434 c 0.974617,0.97461 0.63706,2.4072 -0.698714,2.96532 -0.609332,0.25459 -2.202706,0.31431 -7.829808,0.29344 -3.885638,-0.0144 -7.268053,-0.0754 -7.516478,-0.13546 z"
   id="path1027" /><path
   style="fill:#ffffff;stroke:#ffffff;stroke-width:0.225841"
   d="m 84.115633,127.04602 c -0.733385,-0.73339 -0.733385,-1.7714 0,-2.50479 l 0.554338,-0.55433 h 5.779485 5.779485 l 0.554338,0.55433 c 0.733385,0.73339 0.733385,1.7714 0,2.50479 l -0.554338,0.55434 h -5.779485 -5.779485 z"
   id="path1066" /><path
   style="fill:#ffffff;stroke:#ffffff;stroke-width:0.225841"
   d="m 120.80774,152.00859 c -1.05465,-1.05465 -0.91049,-1.62372 1.21347,-4.78998 3.41038,-5.08397 4.86409,-7.70159 6.25452,-11.26212 0.94928,-2.43086 1.38678,-2.93594 2.54314,-2.93594 0.67303,0 1.03743,0.15605 1.54153,0.66015 0.78885,0.78885 0.80611,1.07835 0.17562,2.94533 -1.17746,3.48664 -6.63249,12.91439 -8.77663,15.16835 -1.0621,1.1165 -1.98256,1.1833 -2.95165,0.21421 z"
   id="path1105" /></svg>
