<svg xmlns="http://www.w3.org/2000/svg" width="18.881" height="42.187" viewBox="0 0 18.881 42.187">
  <g id="Group_309" data-name="Group 309" transform="translate(1.5 1.532)">
    <ellipse id="Ellipse_27" data-name="Ellipse 27" cx="5.129" cy="5.129" rx="5.129" ry="5.129" transform="matrix(1, -0.022, 0.022, 1, 2.68, 0.223)" fill="none" stroke="#474747" stroke-linecap="round" stroke-width="3"/>
    <path id="Path_125" data-name="Path 125" d="M5714.294,1169.542a.968.968,0,0,0-1.186-.213c-1.825.934-3.812.663-4.053-1.187a2.686,2.686,0,0,1,.025-.8l2.943-17.113a.158.158,0,0,0-.156-.184h-10.8a2.378,2.378,0,0,0-2.377,2.378v.553a2.378,2.378,0,0,0,2.378,2.378h1.361a.287.287,0,0,1,.282.336l-1.886,10.969a7.1,7.1,0,0,0,1,5.128,6.366,6.366,0,0,0,5.668,2.833,7.449,7.449,0,0,0,6.917-4.013A.942.942,0,0,0,5714.294,1169.542Z" transform="translate(-5698.69 -1135.463)" fill="none" stroke="#474747" stroke-linecap="round" stroke-width="3"/>
  </g>
</svg>
