<svg xmlns="http://www.w3.org/2000/svg" width="45.838" height="30.038" viewBox="0 0 45.838 30.038">
  <g id="Group_310" data-name="Group 310" transform="translate(1.5 1.5)">
    <g id="Group_298" data-name="Group 298" transform="translate(0 0)">
      <line id="Line_59" data-name="Line 59" x1="20.131" transform="translate(9.89 23.593)" fill="none" stroke="#474747" stroke-linecap="round" stroke-width="3"/>
      <path id="Path_126" data-name="Path 126" d="M154.428,29.418h4.56a.866.866,0,0,0,.866-.866V6.76a.935.935,0,0,0-.935-.935H134.113a.99.99,0,0,0-.99.99v22.6" transform="translate(-117.016 -5.825)" fill="none" stroke="#474747" stroke-linecap="round" stroke-width="3"/>
      <path id="Path_127" data-name="Path 127" d="M8.826,46.121H6.5a.67.67,0,0,1-.67-.67V37.432A12.485,12.485,0,0,1,18.311,24.947h3.241" transform="translate(-5.826 -22.527)" fill="none" stroke="#474747" stroke-linecap="round" stroke-width="3"/>
      <path id="Path_128" data-name="Path 128" d="M36.424,168.5a3.445,3.445,0,1,1-3.445-3.445A3.445,3.445,0,0,1,36.424,168.5Z" transform="translate(-26.534 -144.91)" fill="none" stroke="#474747" stroke-linecap="round" stroke-width="3"/>
      <path id="Path_129" data-name="Path 129" d="M249.971,168.5a3.445,3.445,0,1,1-3.445-3.445A3.445,3.445,0,0,1,249.971,168.5Z" transform="translate(-213.06 -144.91)" fill="none" stroke="#474747" stroke-linecap="round" stroke-width="3"/>
      <line id="Line_60" data-name="Line 60" x2="11.192" transform="translate(0 14.905)" fill="none" stroke="#474747" stroke-linecap="round" stroke-width="3"/>
      <line id="Line_61" data-name="Line 61" y2="9.083" transform="translate(11.192 5.822)" fill="none" stroke="#474747" stroke-linecap="round" stroke-width="3"/>
      <line id="Line_62" data-name="Line 62" x2="7.183" transform="translate(4.009 5.738)" fill="none" stroke="#474747" stroke-linecap="round" stroke-width="3"/>
    </g>
  </g>
</svg>
