<svg width="37" height="37" viewBox="0 0 37 37" fill="none" xmlns="http://www.w3.org/2000/svg">
<path d="M15.8481 15.4188C18.7557 15.4188 21.1127 13.0618 21.1127 10.1542C21.1127 7.24669 18.7557 4.88965 15.8481 4.88965C12.9405 4.88965 10.5835 7.24669 10.5835 10.1542C10.5835 13.0618 12.9405 15.4188 15.8481 15.4188Z" stroke="#1D1D1B" stroke-width="1.6" stroke-linecap="round" stroke-linejoin="round"/>
<path d="M21.0948 28.4013H7.08266C6.50416 28.4013 6.03516 27.9323 6.03516 27.3538V23.8262C6.03516 21.1511 8.20376 18.9824 10.879 18.9824H20.3696C21.7629 18.9824 23.0304 19.5209 23.9753 20.4011" stroke="#1D1D1B" stroke-width="1.6" stroke-linecap="round" stroke-linejoin="round"/>
<path d="M30.8091 24.1753H25.4371C24.5965 24.1753 23.915 24.8568 23.915 25.6974V28.9206C23.915 29.7612 24.5965 30.4427 25.4371 30.4427H30.8091C31.6498 30.4427 32.3312 29.7612 32.3312 28.9206V25.6974C32.3312 24.8568 31.6498 24.1753 30.8091 24.1753Z" stroke="#1D1D1B" stroke-width="1.6" stroke-linecap="round" stroke-linejoin="round"/>
<path d="M25.9028 23.7455V21.2788C25.9028 20.0896 26.8669 19.1255 28.0561 19.1255C29.3195 19.1255 30.3437 20.1497 30.3437 21.4131V23.826" stroke="#1D1D1B" stroke-width="1.6" stroke-linecap="round" stroke-linejoin="round"/>
</svg>
