<svg width="37" height="37" viewBox="0 0 37 37" fill="none" xmlns="http://www.w3.org/2000/svg">
<path d="M15.8481 15.4188C18.7557 15.4188 21.1127 13.0618 21.1127 10.1542C21.1127 7.24669 18.7557 4.88965 15.8481 4.88965C12.9405 4.88965 10.5835 7.24669 10.5835 10.1542C10.5835 13.0618 12.9405 15.4188 15.8481 15.4188Z" stroke="#1D1D1B" stroke-width="1.6" stroke-linecap="round" stroke-linejoin="round"/>
<path d="M21.0948 28.4011H7.08266C6.50416 28.4011 6.03516 27.9321 6.03516 27.3536V23.826C6.03516 21.1509 8.20376 18.9822 10.879 18.9822H20.3696C21.7629 18.9822 22.0551 19.1198 23 20" stroke="#1D1D1B" stroke-width="1.6" stroke-linecap="round" stroke-linejoin="round"/>
<path d="M33 25C33 25.9375 32.7375 26.825 32.275 27.575C32.0125 28.025 31.675 28.425 31.2875 28.75C30.4125 29.5375 29.2625 30 28 30C26.175 30 24.5875 29.025 23.725 27.575C23.2625 26.825 23 25.9375 23 25C23 23.425 23.725 22.0125 24.875 21.1C25.7375 20.4125 26.825 20 28 20C30.7625 20 33 22.2375 33 25Z" stroke="#1D1D1B" stroke-width="1.6" stroke-miterlimit="10" stroke-linecap="round" stroke-linejoin="round"/>
<path d="M26 24.9949L27.2692 26L30 24" stroke="#1D1D1B" stroke-width="1.6" stroke-linecap="round" stroke-linejoin="round"/>
</svg>
