<svg version="1.2" xmlns="http://www.w3.org/2000/svg" viewBox="0 0 211 215" width="211" height="215"><style>.a{fill:#b3b0b0}.b{fill:#fff;stroke:#fff;stroke-width:.4}</style><path class="a" d="m100.9 153.9h-3.7c0 7-2.8 13.3-7.4 17.8-4.6 4.6-10.9 7.4-17.8 7.4-7 0-13.3-2.8-17.8-7.4-4.6-4.6-7.4-10.9-7.4-17.8 0-7 2.8-13.3 7.4-17.8 4.6-4.6 10.9-7.4 17.8-7.4 7 0 13.3 2.8 17.8 7.4 4.6 4.6 7.4 10.9 7.4 17.8h3.7 3.7c0-18-14.6-32.5-32.5-32.5-18 0-32.5 14.6-32.5 32.5 0 18 14.6 32.5 32.5 32.5 18 0 32.5-14.6 32.5-32.5z"/><path class="a" d="m84 162.7c-0.6 1.8-1.8 3.3-3.2 4.5-1.5 1.1-3.3 1.9-5 2.2-1.6 0.3-2.6 1.8-2.3 3.3 0.3 1.6 1.8 2.6 3.3 2.3 2.6-0.5 5.2-1.6 7.5-3.3 2.3-1.7 4.2-4.2 5.2-7.2 0.5-1.5-0.3-3.1-1.8-3.6-1.6-0.5-3.2 0.3-3.7 1.8z"/><path class="a" d="m81.7 94.3l-3.6-0.5c-0.2 1.2-0.6 2.3-1.1 3.3-0.9 1.6-2.1 3-3.3 3.9-0.6 0.5-1.1 0.8-1.5 1-0.2 0.1-0.3 0.1-0.4 0.1l0.2 1v-1.1c-0.2 0-0.2 0-0.2 0l0.2 1v-1.1 2.1l0.5-2c-0.1 0-0.2-0.1-0.5-0.1v2.1l0.5-2-0.1 0.5 0.2-0.5-0.1 0.5 0.2-0.5c-0.1 0-0.7-0.3-1.4-0.8-1.1-0.7-2.3-1.9-3.4-3.3-1-1.4-1.7-2.9-1.9-4.3 0-0.3-0.1-0.6-0.1-0.9 0-1.8 0.8-3.4 2-4.6 1.2-1.2 2.8-1.9 4.2-1.9 1.4 0 3 0.7 4.2 1.9 1.2 1.2 2 2.8 2 4.6 0 0.3 0 0.6-0.1 0.9l3.5 0.7 3.6 0.5c0.1-0.6 0.1-1.3 0.1-1.9 0-3.9-1.7-7.3-4.1-9.8-2.5-2.4-5.8-4-9.3-4-3.6 0-6.9 1.6-9.3 4-2.4 2.4-4.1 5.9-4.1 9.8 0 0.6 0 1.2 0.1 1.8 0.3 2.2 1.1 4.2 2.1 6 1.5 2.6 3.5 4.6 5.4 6q1.3 1 2.7 1.8c0.4 0.2 0.9 0.4 1.4 0.6 0.5 0.2 1 0.3 1.8 0.3 0.9 0 1.6-0.2 2.3-0.4 1.2-0.4 2.3-1.1 3.4-1.9 1.7-1.2 3.3-2.9 4.7-4.9 1.4-2.1 2.5-4.5 2.9-7.4v-0.1 0.1z"/><path fill-rule="evenodd" class="a" d="m68.4 104.2v20.8h7.3v-20.8"/><path class="a" d="m146.3 204.9v-3.7h-14.2c-1.4 0-2.7-0.6-3.6-1.5-0.9-0.9-1.5-2.2-1.5-3.6v-101.9-0.1l-3.5 0.2h3.5v-0.2l-3.5 0.2h3.5c0-1.4 0.6-2.7 1.5-3.6 0.9-0.9 2.2-1.5 3.6-1.5h14.2c1.4 0 2.7 0.6 3.6 1.5 0.9 0.9 1.5 2.2 1.5 3.6v101.8c0 1.4-0.6 2.7-1.5 3.6-0.9 0.9-2.2 1.5-3.6 1.5v3.7 3.7c3.4 0 6.6-1.4 8.8-3.7 2.2-2.2 3.7-5.4 3.7-8.8v-101.8c0-3.4-1.4-6.6-3.7-8.8-2.2-2.2-5.4-3.7-8.8-3.7h-14.2c-3.4 0-6.6 1.4-8.8 3.7-2.2 2.2-3.7 5.4-3.7 8.8v0.2l3.6-0.2h-3.7v101.8c0 3.4 1.4 6.6 3.7 8.8 2.2 2.2 5.4 3.7 8.8 3.7h14.2z"/><path class="a" d="m147.7 70.8l-3.6-0.5c-0.2 1.2-0.5 2.3-1.1 3.4-0.8 1.6-2 3-3.1 3.9-0.5 0.4-1 0.8-1.4 0.9-0.2 0.1-0.3 0.1-0.3 0.1l0.3 1.2v-1.2q-0.3 0-0.3 0l0.3 1.2v-1.2 2.2l0.6-2.2c-0.1 0-0.2-0.1-0.6-0.1v2.2l0.6-2.2-0.2 0.8 0.3-0.7h-0.1l-0.2 0.8 0.3-0.7c-0.2-0.1-0.7-0.4-1.4-0.9-1-0.7-2.1-1.9-3-3.2-0.9-1.3-1.6-2.8-1.7-4.3 0-0.3-0.1-0.6-0.1-0.9 0-1.8 0.7-3.5 1.9-4.7 0.6-0.6 1.2-1.1 1.8-1.4 0.6-0.3 1.3-0.4 1.9-0.4 0.6 0 1.2 0.1 1.9 0.4 1 0.4 1.9 1.3 2.6 2.3 0.7 1.1 1.1 2.3 1.1 3.7 0 0.3 0 0.6-0.1 0.9l3.6 0.6 3.6 0.5c0.1-0.6 0.1-1.2 0.1-1.9 0-3.8-1.5-7.2-3.9-9.7-1.2-1.2-2.5-2.2-4.1-2.9-1.5-0.7-3.2-1.1-5-1.1-1.8 0-3.4 0.4-5 1.1-2.3 1.1-4.2 2.8-5.7 5-1.4 2.2-2.3 4.8-2.3 7.7 0 0.6 0 1.2 0.1 1.8 0.3 2.2 1 4.2 2 5.9 1.4 2.6 3.3 4.6 5.1 6.1 0.9 0.7 1.7 1.3 2.6 1.8 0.4 0.2 0.8 0.4 1.3 0.6 0.5 0.2 1 0.3 1.8 0.3 0.9 0 1.6-0.2 2.3-0.5 1.2-0.4 2.2-1.1 3.3-1.9 1.6-1.2 3.1-2.9 4.5-5 1.3-2.1 2.4-4.5 2.7-7.3z"/><path class="a" d="m141.1 179v15.1c0 1.9 1.5 3.4 3.4 3.4 1.9 0 3.4-1.5 3.4-3.4v-15.1c0-1.9-1.5-3.4-3.4-3.4-1.9 0-3.4 1.5-3.4 3.4z"/><path class="a" d="m64.4 43.9c-1.4 0.1-2.7 0.2-3.9 0.4-0.8-5.6 4.2-11.9 10.5-13.3 9.7-2 18.2 6.1 16.6 15.9-1.2 7.4-2.5 14.8-3.4 22.3-0.3 2.3 0.2 4.7 0.9 6.9 2.1 6.5-1.1 13.2-7.5 15.3-6.3 2.1-13-1.4-14.9-7.8-1-3.4-0.4-6.6 1.2-9.7 1.3 0 2.6 0 4.2 0-0.4 1.2-0.7 2.2-1 3.2-1.3 3.5-0.5 6.9 2.3 9.1 2.7 2.1 6.2 2.1 9 0.1 2.8-2.1 4-5.6 2.5-9-2.2-4.8-0.8-9.5-0.1-14.3 0.8-5.7 1.8-11.4 2.7-17 0.8-5.4-2.6-10-8-11-4.9-0.9-9.7 2.5-10.8 7.5-0.2 0.5-0.2 0.9-0.3 1.4z"/><path class="a" d="m63.1 45.5c1.8 0 2.5 1.4 2.7 2.4 1.3 7 2.4 14.1 3.4 21.2 0.3 1.8-1 3.2-2.7 3.4-1.7 0.2-3.2-0.9-3.5-2.9-0.8-4.7-1.5-9.4-2.2-14.1-0.3-2.2-0.7-4.4-1-6.7-0.1-1.8 0.7-3.3 3.3-3.3z"/><path class="a" d="m148.5 19.4c1.4 0.1 2.7 0.2 3.9 0.4 0.8-5.5-4.2-11.9-10.5-13.2-9.7-2-18.2 6.1-16.5 16 1.2 7.4 2.5 14.8 3.4 22.3 0.3 2.3-0.2 4.7-0.9 6.9-2.1 6.5 1.1 13.2 7.5 15.3 6.3 2.1 13-1.5 14.9-7.8 1-3.4 0.4-6.6-1.2-9.7-1.3 0-2.6 0-4.2 0 0.4 1.2 0.7 2.2 1 3.2 1.3 3.5 0.5 6.9-2.3 9.1-2.7 2.1-6.2 2.1-9 0.1-2.8-2.1-4-5.6-2.5-9 2.2-4.8 0.8-9.5 0.1-14.3-0.8-5.7-1.8-11.4-2.7-17-0.8-5.4 2.6-10 8-11 4.9-0.9 9.7 2.5 10.8 7.5 0.1 0.3 0.1 0.7 0.2 1.2z"/><path class="a" d="m149.8 21c-1.8 0-2.5 1.4-2.7 2.4-1.3 7-2.4 14.1-3.4 21.2-0.3 1.8 1 3.2 2.7 3.4 1.7 0.2 3.2-0.9 3.5-2.9 0.8-4.7 1.5-9.4 2.2-14.1 0.3-2.2 0.7-4.4 1-6.7 0.1-1.8-0.7-3.3-3.3-3.3z"/><path class="b" d="m69.4 186.1c-12.7-0.9-24.1-9.9-28.1-22.3-1-3.2-1.5-6-1.5-9.8 0-5.5 1.1-10 3.5-14.8 4.5-8.8 13.6-15.6 23.1-17.1l2.1-0.4v-6.8-6.9l-1.2-0.7c-4.2-2.7-7.6-7.6-8.4-12.3-0.6-3.4 0.5-7.4 2.7-10.4l1-1.3-0.2-1.9c-0.1-2.2 0.1-3.8 1-5.9l0.5-1.4h1.9c1.4 0 1.9 0.1 1.9 0.3 0 0.2-0.3 1.2-0.6 2.4-0.4 1.1-0.7 2.4-0.7 2.8v0.9l1.5-0.5c1.9-0.7 4.8-0.9 6.6-0.5 1.7 0.4 4.1 1.6 5.5 2.8l1.1 0.8 0.3-0.9c0.4-1.6 0.3-2.9-0.6-5.4-1.4-4.1-1.2-6.3 2.2-26.8 0.8-5.1 0.9-6.2 0.4-8.1-0.8-2.8-2.6-4.9-5.3-6.2-1.3-0.6-1.8-0.7-4.2-0.7-2.6 0-2.8 0-4.3 0.9-2.6 1.4-4.3 3.6-5 6.7-0.3 1.2-0.4 1.3-1.3 1.3-0.5 0-1.3 0.1-1.8 0.2l-1 0.1v-1c0-2.9 1.3-5.5 3.9-8.1 1.5-1.6 2.4-2.3 3.9-2.9 7.7-3.7 16.7 0.6 18.9 9 0.6 2.3 0.5 4.4-0.8 12-1.4 8.6-2.4 16.1-2.4 17.7 0 0.7 0.3 2.7 0.8 4.4 0.9 3.9 1 6.1 0.2 8.4-0.3 0.9-0.7 1.9-0.9 2.2-0.4 0.6-0.4 0.8 0.1 2 0.8 1.9 1.1 3.4 1.1 5.4 0 5.4-3.6 11.3-9.1 14.7l-0.7 0.5v6.6l0.1 6.6 2.1 0.3c13.2 2.2 24 13.1 26.3 26.4 2.4 13.9-4.7 28-17.2 34.3-5.6 2.8-11 3.8-17.4 3.4zm8.9-7.7c8.5-2.1 15.8-9.3 18.1-17.6 3.3-12.3-2.9-25.4-14.4-30.2-3.7-1.5-5.5-1.8-9.9-1.9-3.5 0-4.3 0.1-6.5 0.7-9.5 2.6-16.8 10.5-18.5 20.1-0.4 2.2-0.4 6.9 0 8.9 2 10.5 9.9 18.4 20.2 20.4 2.7 0.5 8.2 0.3 11-0.4zm-5.1-76.8c2-1.4 4.1-4.2 4.6-6.4l0.4-1.3 1.3 0.2c0.7 0.1 1.5 0.2 1.8 0.3 0.2 0.1 0.4 0 0.3-0.1-0.1-0.2-0.7-0.3-1.4-0.4-1.8-0.3-1.9-0.4-1.9-1.7 0-1 0-1.1-0.6-1-3.7 1.1-7.3 0.7-10.1-1.2l-0.9-0.7-0.4 1c-1 2.3-0.3 5.3 2 8.3 0.9 1.1 3.6 3.4 4.1 3.4 0.1 0 0.4-0.2 0.8-0.4zm2.5-14.1c0-0.1-0.5-0.5-1.2-0.8-1.3-0.6-3.5-0.7-4.3-0.3-0.5 0.3-0.4 0.4 0.6 0.8 1.3 0.6 4.9 0.8 4.9 0.3z"/><path class="b" d="m75.3 174.7c-1-0.5-1.6-1.4-1.6-2.5 0-1.5 0.7-2.2 2.9-2.9 3.6-1 5.9-2.9 7.2-5.9 0.9-1.9 1.5-2.4 3-2.4 0.9 0 1.2 0.1 1.9 0.8 1.3 1.5 0.8 3.4-1.5 6.7-1.8 2.6-5 4.8-8.5 5.8-2.1 0.7-2.5 0.7-3.4 0.4z"/><path class="b" d="m64.2 71.5c-0.5-0.4-0.9-1.1-1-1.5-0.7-3.5-3.2-20.5-3.2-21.7 0-1.5 0.8-2.4 2.5-2.5 1.5-0.2 2.2 0.1 2.8 1.2 0.6 1.1 3.7 20.2 3.7 22.6 0 1.7-1.2 2.7-3 2.7-0.8 0-1.2-0.2-1.8-0.8z"/><path class="b" d="m130.6 208.3c-3.1-0.4-5.3-1.6-7.7-4q-2.4-2.5-3-5.9c-0.2-1.1-0.3-15.4-0.2-54l0.1-52.4 0.5-1.5c1.7-4.3 5.6-7.7 9.6-8.3l1.3-0.2-1.5-1.9c-1.8-2.1-3.2-4.9-3.8-7.3-0.8-3.4-0.1-7.9 1.9-10.8 0.7-1 0.7-1.1 0.2-2.3-0.8-2.4-0.8-4.5 0.1-8.1 1.2-4.9 1.2-5.8-1.5-22.5-1.4-8.6-1.5-9.9-0.9-12.2 1.9-7.4 9.3-11.9 16.5-10.1 3.5 1 7.1 3.8 8.7 6.8 0.8 1.5 1.5 3.9 1.5 5.2v0.9l-1.2-0.2c-0.6-0.1-1.5-0.1-1.9-0.1-0.6 0-0.7-0.2-0.9-1-0.2-1.6-1.6-4-3-5.3-2.3-2.2-5.2-3-8.3-2.4-3.3 0.7-5.6 2.6-7 5.7-1 2.1-1 4.3 0.2 11.1 2.2 13.2 2.8 17.7 2.7 20.5-0.1 2.2-0.3 3.1-0.9 4.5-0.6 1.7-1 4.8-0.6 5.2 0.1 0.1 0.9-0.2 1.8-0.6 4-1.9 8-1.6 11.6 0.7 1 0.7 1.2 0.7 1.4 0.4 0.5-0.9 0.3-3.8-0.4-6-0.4-1.2-0.7-2.2-0.7-2.3 0 0 0.9-0.1 1.9-0.1h2l0.4 1.1c1.4 3.1 1.4 6.7 0.2 9.4l-0.7 1.6 0.5 0.9c1.6 2.5 2.5 8.7 1.3 8.3-0.2 0-0.8-0.1-1.5-0.2q-1.2-0.1-0.6 0.1c0.3 0.1 0.9 0.2 1.3 0.2 0.7 0.1 0.9 0.1 0.9 0.7 0 1.8-1.9 5.9-3.9 8.3l-1.2 1.6 1.9 0.3c5.1 0.8 9 4.1 10.5 9 0.4 1.3 0.4 6.4 0.4 54 0 58 0.1 54-1.6 57-1.9 3.3-5.6 5.9-9 6.2l-1.5 0.1-0.1-1.8c0-1.4 0-1.5-0.1-0.4-0.1 0.7-0.1 1.5-0.2 1.8l-0.2 0.6h-6.9c-3.7 0-7.6-0.2-8.4-0.3zm17.2-7.2c1.3-0.5 2.5-1.4 3.1-2.6l0.6-1.1 0.1-51.4c0-35 0-51.8-0.2-52.7-0.4-1.6-1.5-3.1-3-3.7-0.9-0.5-1.8-0.5-9.2-0.5h-8.2l-1.3 0.7c-1.1 0.6-1.5 1-2.1 2.1l-0.7 1.4v51.9c0 50 0 52 0.4 52.9 0.7 1.4 1.8 2.4 3.1 2.9 1.3 0.5 16 0.5 17.4 0.1zm-8-123.3c1.7-1.2 3.6-3.9 4.1-6.1 0.3-1.3 0.3-1.3 2.4-1 0.6 0.1 1.1 0.1 1.1 0-0.1-0.1-0.8-0.2-1.7-0.3-0.9-0.1-1.5-0.3-1.4-0.5 0.2-0.2-0.1-2.6-0.4-3-0.1-0.1-0.8-0.1-2.1 0.3-2.2 0.6-4.2 0.5-6.6-0.3-0.8-0.3-1.5-0.5-1.6-0.4-0.5 0.3-0.8 2.6-0.5 4.1 0.3 1.9 1 3.4 2.4 5.2 1 1.2 2.8 2.7 3.2 2.7 0.1 0 0.6-0.3 1.1-0.7zm0.9-14.5c-0.2-0.4-2.1-0.6-3-0.4-1.3 0.3-0.6 0.6 1.3 0.6 1 0 1.8-0.1 1.7-0.2z"/><path class="b" d="m144.7 47c-0.7-0.6-0.8-0.9-0.8-1.8 0-2.5 3.1-21.6 3.7-22.8 0.5-0.9 1.2-1.2 2.4-1.2 1.8 0 2.9 1.1 2.9 2.8 0 0.7-2 14.1-2.8 19-0.7 4-1.2 4.8-3.5 4.8-0.9 0-1.3-0.2-1.9-0.8z"/><path class="b" d="m142.6 196.7c-0.4-0.4-0.9-0.9-1-1.2-0.2-0.4-0.3-3.4-0.3-9 0-9.2 0.1-9.5 1.6-10.3 0.4-0.2 1.2-0.4 1.8-0.4 0.8 0 1.2 0.2 2 0.9l0.9 0.9 0.1 8.5c0.1 9.4 0 9.8-1.5 10.7-1 0.6-2.8 0.6-3.6-0.1z"/></svg>