<?xml version="1.0" encoding="UTF-8" standalone="no"?>
<!-- Generator: Adobe Illustrator 23.0.1, SVG Export Plug-In . SVG Version: 6.00 Build 0)  -->

<svg
   version="1.1"
   id="Vrstva_1"
   x="0px"
   y="0px"
   viewBox="0 0 183.9 214.8"
   style="enable-background:new 0 0 183.9 214.8;"
   xml:space="preserve"
   sodipodi:docname="ocr.svg"
   inkscape:version="1.1.1 (3bf5ae0d25, 2021-09-20)"
   xmlns:inkscape="http://www.inkscape.org/namespaces/inkscape"
   xmlns:sodipodi="http://sodipodi.sourceforge.net/DTD/sodipodi-0.dtd"
   xmlns="http://www.w3.org/2000/svg"
   xmlns:svg="http://www.w3.org/2000/svg"><defs
   id="defs31" /><sodipodi:namedview
   id="namedview29"
   pagecolor="#ffffff"
   bordercolor="#666666"
   borderopacity="1.0"
   inkscape:pageshadow="2"
   inkscape:pageopacity="0.0"
   inkscape:pagecheckerboard="0"
   showgrid="false"
   inkscape:zoom="3.8733705"
   inkscape:cx="92.038703"
   inkscape:cy="107.27091"
   inkscape:window-width="1920"
   inkscape:window-height="1017"
   inkscape:window-x="-8"
   inkscape:window-y="-8"
   inkscape:window-maximized="1"
   inkscape:current-layer="Vrstva_1" />
<style
   type="text/css"
   id="style2">
	.st0{fill:#B3B0B0;}
</style>
<g
   id="g26">
	<path
   class="st0"
   d="M87.9,153.9h-3.7c0,7-2.8,13.3-7.4,17.8c-4.6,4.6-10.9,7.4-17.8,7.4c-7,0-13.3-2.8-17.8-7.4   c-4.6-4.6-7.4-10.9-7.4-17.8c0-7,2.8-13.3,7.4-17.8c4.6-4.6,10.9-7.4,17.8-7.4c7,0,13.3,2.8,17.8,7.4c4.6,4.6,7.4,10.9,7.4,17.8   H87.9h3.7c0-18-14.6-32.5-32.5-32.5c-18,0-32.5,14.6-32.5,32.5c0,18,14.6,32.5,32.5,32.5c18,0,32.5-14.6,32.5-32.5H87.9z"
   id="path4" />
	<path
   class="st0"
   d="M71,162.7c-0.6,1.8-1.8,3.3-3.2,4.5c-1.5,1.1-3.3,1.9-5,2.2c-1.6,0.3-2.6,1.8-2.3,3.3c0.3,1.6,1.8,2.6,3.3,2.3   c2.6-0.5,5.2-1.6,7.5-3.3c2.3-1.7,4.2-4.2,5.2-7.2c0.5-1.5-0.3-3.1-1.8-3.6C73.1,160.4,71.5,161.2,71,162.7z"
   id="path6" />
	<path
   class="st0"
   d="M68.7,94.3l-3.6-0.5c-0.2,1.2-0.6,2.3-1.1,3.3c-0.9,1.6-2.1,3-3.3,3.9c-0.6,0.5-1.1,0.8-1.5,1   c-0.2,0.1-0.3,0.1-0.4,0.1l0,0l0.2,1v-1.1c-0.2,0-0.2,0-0.2,0l0.2,1v-1.1v2.1l0.5-2c-0.1,0-0.2-0.1-0.5-0.1v2.1l0.5-2l-0.1,0.5   l0.2-0.5l0,0l-0.1,0.5l0.2-0.5c-0.1,0-0.7-0.3-1.4-0.8c-1.1-0.7-2.3-1.9-3.4-3.3c-1-1.4-1.7-2.9-1.9-4.3c0-0.3-0.1-0.6-0.1-0.9   c0-1.8,0.8-3.4,2-4.6c1.2-1.2,2.8-1.9,4.2-1.9c1.4,0,3,0.7,4.2,1.9c1.2,1.2,2,2.8,2,4.6c0,0.3,0,0.6-0.1,0.9l0,0L68.7,94.3l3.6,0.5   c0.1-0.6,0.1-1.3,0.1-1.9c0-3.9-1.7-7.3-4.1-9.8c-2.5-2.4-5.8-4-9.3-4c-3.6,0-6.9,1.6-9.3,4c-2.4,2.4-4.1,5.9-4.1,9.8   c0,0.6,0,1.2,0.1,1.8c0.3,2.2,1.1,4.2,2.1,6c1.5,2.6,3.5,4.6,5.4,6c0.9,0.7,1.8,1.3,2.7,1.8c0.4,0.2,0.9,0.4,1.4,0.6   c0.5,0.2,1,0.3,1.8,0.3c0.9,0,1.6-0.2,2.3-0.4c1.2-0.4,2.3-1.1,3.4-1.9c1.7-1.2,3.3-2.9,4.7-4.9c1.4-2.1,2.5-4.5,2.9-7.4l0-0.1   l0,0.1L68.7,94.3z"
   id="path8" />
	<polyline
   class="st0"
   points="55.4,104.2 55.4,125 62.7,125 62.7,104.2  "
   id="polyline10" />
	<path
   class="st0"
   d="M133.3,204.9l0-3.7l-14.2,0c-1.4,0-2.7-0.6-3.6-1.5c-0.9-0.9-1.5-2.2-1.5-3.6l0-101.9l0-0.1l-3.5,0.2l3.5,0   l0-0.2l-3.5,0.2l3.5,0c0-1.4,0.6-2.7,1.5-3.6c0.9-0.9,2.2-1.5,3.6-1.5l14.2,0c1.4,0,2.7,0.6,3.6,1.5c0.9,0.9,1.5,2.2,1.5,3.6   l0,101.8l0,0c0,1.4-0.6,2.7-1.5,3.6c-0.9,0.9-2.2,1.5-3.6,1.5L133.3,204.9l0,3.7c3.4,0,6.6-1.4,8.8-3.7c2.2-2.2,3.7-5.4,3.7-8.8   l0,0l0-101.8c0-3.4-1.4-6.6-3.7-8.8c-2.2-2.2-5.4-3.7-8.8-3.7l-14.2,0c-3.4,0-6.6,1.4-8.8,3.7c-2.2,2.2-3.7,5.4-3.7,8.8l0,0.2   l3.6-0.2l-3.7,0l0,101.8c0,3.4,1.4,6.6,3.7,8.8c2.2,2.2,5.4,3.7,8.8,3.7l14.2,0L133.3,204.9z"
   id="path12" />
	<path
   class="st0"
   d="M134.7,70.8l-3.6-0.5c-0.2,1.2-0.5,2.3-1.1,3.4c-0.8,1.6-2,3-3.1,3.9c-0.5,0.4-1,0.8-1.4,0.9   c-0.2,0.1-0.3,0.1-0.3,0.1l0,0l0.3,1.2l0-1.2c-0.2,0-0.3,0-0.3,0l0.3,1.2l0-1.2l0,2.2l0.6-2.2c-0.1,0-0.2-0.1-0.6-0.1v2.2l0.6-2.2   l-0.2,0.8l0.3-0.7l-0.1,0l-0.2,0.8l0.3-0.7l0,0c-0.2-0.1-0.7-0.4-1.4-0.9c-1-0.7-2.1-1.9-3-3.2c-0.9-1.3-1.6-2.8-1.7-4.3l0,0   c0-0.3-0.1-0.6-0.1-0.9c0-1.8,0.7-3.5,1.9-4.7c0.6-0.6,1.2-1.1,1.8-1.4c0.6-0.3,1.3-0.4,1.9-0.4c0.6,0,1.2,0.1,1.9,0.4   c1,0.4,1.9,1.3,2.6,2.3c0.7,1.1,1.1,2.3,1.1,3.7c0,0.3,0,0.6-0.1,0.9l0,0L134.7,70.8l3.6,0.5c0.1-0.6,0.1-1.2,0.1-1.9   c0-3.8-1.5-7.2-3.9-9.7c-1.2-1.2-2.5-2.2-4.1-2.9c-1.5-0.7-3.2-1.1-5-1.1c-1.8,0-3.4,0.4-5,1.1c-2.3,1.1-4.2,2.8-5.7,5   c-1.4,2.2-2.3,4.8-2.3,7.7c0,0.6,0,1.2,0.1,1.8l0,0c0.3,2.2,1,4.2,2,5.9c1.4,2.6,3.3,4.6,5.1,6.1c0.9,0.7,1.7,1.3,2.6,1.8   c0.4,0.2,0.8,0.4,1.3,0.6c0.5,0.2,1,0.3,1.8,0.3c0.9,0,1.6-0.2,2.3-0.5c1.2-0.4,2.2-1.1,3.3-1.9c1.6-1.2,3.1-2.9,4.5-5   c1.3-2.1,2.4-4.5,2.7-7.3l0,0L134.7,70.8z"
   id="path14" />
	<path
   class="st0"
   d="M128.1,179l0,15.1c0,1.9,1.5,3.4,3.4,3.4c1.9,0,3.4-1.5,3.4-3.4l0-15.1c0-1.9-1.5-3.4-3.4-3.4   C129.6,175.6,128.1,177.1,128.1,179"
   id="path16" />
	<path
   class="st0"
   d="M51.4,43.9c-1.4,0.1-2.7,0.2-3.9,0.4C46.7,38.7,51.7,32.4,58,31c9.7-2,18.2,6.1,16.6,15.9   c-1.2,7.4-2.5,14.8-3.4,22.3c-0.3,2.3,0.2,4.7,0.9,6.9c2.1,6.5-1.1,13.2-7.5,15.3c-6.3,2.1-13-1.4-14.9-7.8c-1-3.4-0.4-6.6,1.2-9.7   c1.3,0,2.6,0,4.2,0c-0.4,1.2-0.7,2.2-1,3.2c-1.3,3.5-0.5,6.9,2.3,9.1c2.7,2.1,6.2,2.1,9,0.1c2.8-2.1,4-5.6,2.5-9   c-2.2-4.8-0.8-9.5-0.1-14.3c0.8-5.7,1.8-11.4,2.7-17c0.8-5.4-2.6-10-8-11c-4.9-0.9-9.7,2.5-10.8,7.5C51.5,43,51.5,43.4,51.4,43.9z"
   id="path18" />
	<path
   class="st0"
   d="M50.1,45.5c1.8,0,2.5,1.4,2.7,2.4c1.3,7,2.4,14.1,3.4,21.2c0.3,1.8-1,3.2-2.7,3.4c-1.7,0.2-3.2-0.9-3.5-2.9   c-0.8-4.7-1.5-9.4-2.2-14.1c-0.3-2.2-0.7-4.4-1-6.7C46.7,47,47.5,45.5,50.1,45.5z"
   id="path20" />
	<path
   class="st0"
   d="M135.5,19.4c1.4,0.1,2.7,0.2,3.9,0.4c0.8-5.5-4.2-11.9-10.5-13.2c-9.7-2-18.2,6.1-16.5,16   c1.2,7.4,2.5,14.8,3.4,22.3c0.3,2.3-0.2,4.7-0.9,6.9c-2.1,6.5,1.1,13.2,7.5,15.3c6.3,2.1,13-1.5,14.9-7.8c1-3.4,0.4-6.6-1.2-9.7   c-1.3,0-2.6,0-4.2,0c0.4,1.2,0.7,2.2,1,3.2c1.3,3.5,0.5,6.9-2.3,9.1c-2.7,2.1-6.2,2.1-9,0.1c-2.8-2.1-4-5.6-2.5-9   c2.2-4.8,0.8-9.5,0.1-14.3c-0.8-5.7-1.8-11.4-2.7-17c-0.8-5.4,2.6-10,8-11c4.9-0.9,9.7,2.5,10.8,7.5   C135.4,18.5,135.4,18.9,135.5,19.4z"
   id="path22" />
	<path
   class="st0"
   d="M136.8,21c-1.8,0-2.5,1.4-2.7,2.4c-1.3,7-2.4,14.1-3.4,21.2c-0.3,1.8,1,3.2,2.7,3.4c1.7,0.2,3.2-0.9,3.5-2.9   c0.8-4.7,1.5-9.4,2.2-14.1c0.3-2.2,0.7-4.4,1-6.7C140.2,22.5,139.4,21,136.8,21z"
   id="path24" />
</g>
<path
   style="fill:#ffffff;stroke:#ffffff;stroke-width:0.258173"
   d="M 56.410818,186.0935 C 43.730194,185.21735 32.319923,176.1673 28.316877,163.81082 27.27139,160.58364 26.85,157.76688 26.85,154.00554 c 0,-5.5542 1.027354,-9.95611 3.448976,-14.77785 4.458214,-8.87683 13.599184,-15.65731 23.129811,-17.15695 l 2.078425,-0.32704 -0.0094,-6.84913 -0.0094,-6.84914 -1.176441,-0.7459 C 50.063378,104.60579 46.708428,99.713414 45.907707,95.043967 45.31349,91.57876 46.366249,87.553364 48.640847,84.593363 L 49.600728,83.344175 49.434135,81.3662 c -0.180223,-2.139808 0.07314,-3.724041 0.945985,-5.915117 l 0.539947,-1.355409 h 1.906312 c 1.354694,0 1.905361,0.09338 1.903017,0.322716 -0.0018,0.177494 -0.292257,1.227521 -0.645432,2.333395 -0.353174,1.105871 -0.642136,2.404079 -0.642136,2.884906 v 0.87423 l 1.484495,-0.531245 c 1.887599,-0.675499 4.76587,-0.879534 6.556442,-0.464773 1.737004,0.402352 4.153458,1.594549 5.563904,2.74504 l 1.083449,0.88376 0.270521,-0.974133 c 0.446795,-1.608888 0.316407,-2.835564 -0.565662,-5.321706 -1.462171,-4.121186 -1.28281,-6.366644 2.140869,-26.801902 0.858965,-5.127 0.912022,-6.221321 0.395669,-8.160993 -0.743498,-2.792935 -2.544913,-4.903911 -5.311899,-6.224712 -1.253673,-0.598433 -1.737391,-0.677805 -4.130769,-0.677805 -2.597536,0 -2.779011,0.03697 -4.342711,0.884793 -2.601267,1.410376 -4.299271,3.675115 -5.015234,6.689144 -0.306746,1.291331 -0.34503,1.333124 -1.223705,1.335876 -0.498879,0.0016 -1.342719,0.07485 -1.875201,0.162867 l -0.968149,0.160025 0.0063,-1.001929 c 0.01813,-2.878175 1.286047,-5.544568 3.881253,-8.162165 1.494689,-1.507583 2.446919,-2.218071 3.88681,-2.900062 7.698736,-3.646436 16.766232,0.698485 18.949356,9.080065 0.602362,2.312619 0.469475,4.347761 -0.78086,11.958861 -1.420256,8.645459 -2.44912,16.104014 -2.44912,17.754456 0,0.67537 0.348534,2.655248 0.774519,4.399723 0.936296,3.834271 1.000718,6.093236 0.238893,8.376661 -0.294596,0.88299 -0.710575,1.877029 -0.924399,2.208975 -0.352499,0.547231 -0.339265,0.72788 0.141856,1.936298 0.755435,1.897402 1.046445,3.396053 1.053684,5.426264 0.01916,5.372522 -3.617252,11.268226 -9.098582,14.751496 l -0.714267,0.4539 0.06883,6.59803 0.06884,6.59801 2.065385,0.34215 c 13.185588,2.1843 24.010468,13.04923 26.304049,26.40139 2.383186,13.87378 -4.679085,27.92404 -17.217387,34.25369 -5.528764,2.79106 -10.913296,3.84714 -17.348201,3.40253 z m 8.906971,-7.67093 c 8.432956,-2.16379 15.81249,-9.35152 18.049898,-17.58074 3.344862,-12.30246 -2.904027,-25.44282 -14.369078,-30.21573 -3.676265,-1.53043 -5.473997,-1.87271 -9.876974,-1.88054 -3.518114,-0.006 -4.30643,0.0747 -6.523558,0.6696 -9.535435,2.55871 -16.834677,10.46191 -18.533554,20.06705 -0.386294,2.18404 -0.385709,6.96031 0.0011,8.91619 2.067565,10.45475 9.9797,18.41732 20.279818,20.40908 2.6839,0.51899 8.204306,0.32534 10.972356,-0.38491 z m -5.156364,-76.87048 c 2.061192,-1.37645 4.118929,-4.155699 4.670625,-6.3083 l 0.333854,-1.302622 1.302263,0.164678 c 0.716247,0.09057 1.520126,0.22681 1.786401,0.302749 0.283298,0.08079 0.418488,0.03186 0.325891,-0.117972 -0.08704,-0.140823 -0.697325,-0.336882 -1.356203,-0.435688 -1.842458,-0.276291 -1.906467,-0.330541 -1.906467,-1.615791 0,-1.084498 -0.0398,-1.152885 -0.580889,-0.998141 -3.757887,1.074715 -7.320529,0.624443 -10.126715,-1.279888 l -0.935777,-0.635036 -0.400279,0.958008 c -0.973976,2.33105 -0.234842,5.344694 2.031262,8.281986 0.912288,1.182494 3.564686,3.412297 4.059002,3.412297 0.08728,0 0.44595,-0.19183 0.797032,-0.42628 z m 2.574634,-14.045933 c 0,-0.14998 -0.551845,-0.520391 -1.226323,-0.823138 -1.326908,-0.595595 -3.507064,-0.720241 -4.346978,-0.248525 -0.443539,0.249103 -0.375586,0.331006 0.668012,0.805162 1.27751,0.580435 4.905289,0.777529 4.905289,0.266501 z"
   id="path1107" /><path
   style="fill:#ffffff;stroke:#ffffff;stroke-width:0.258173"
   d="m 62.31738,174.66411 c -1.066095,-0.4557 -1.646706,-1.33199 -1.646706,-2.48529 0,-1.45847 0.761935,-2.19912 2.917688,-2.83617 3.584264,-1.05921 5.935275,-2.98653 7.244391,-5.93885 0.840476,-1.89543 1.486408,-2.43288 2.923944,-2.43288 0.979283,0 1.270933,0.12879 1.909193,0.84313 1.290405,1.44422 0.858458,3.43478 -1.44616,6.66441 -1.843369,2.58325 -5.034262,4.77871 -8.514681,5.85843 -2.085434,0.64696 -2.537514,0.69063 -3.387669,0.32722 z"
   id="path1146" /><path
   style="fill:#ffffff;stroke:#ffffff;stroke-width:0.258173"
   d="M 51.158827,71.51478 C 50.733302,71.089256 50.32022,70.421234 50.240866,70.030286 49.527368,66.515117 46.987501,49.528491 46.987501,48.271784 c 0,-1.494464 0.8514,-2.350544 2.494734,-2.508448 1.522028,-0.146248 2.252888,0.170395 2.789801,1.20867 0.603759,1.16754 3.759845,20.259165 3.745782,22.658779 -0.0096,1.632361 -1.188362,2.657678 -3.055504,2.657678 -0.79975,0 -1.202644,-0.17284 -1.803487,-0.773683 z"
   id="path1185" /><path
   style="fill:#ffffff;stroke:#ffffff;stroke-width:0.258173"
   d="m 117.59784,208.33026 c -3.09731,-0.41614 -5.32012,-1.59241 -7.66312,-4.05518 -1.60768,-1.68985 -2.61247,-3.63013 -3.03936,-5.86907 -0.21724,-1.1394 -0.27491,-15.40843 -0.21807,-53.95817 l 0.0773,-52.409137 0.58202,-1.528196 c 1.6601,-4.358894 5.51835,-7.737042 9.52567,-8.340348 l 1.32981,-0.200206 -1.50407,-1.86109 c -1.74442,-2.158505 -3.16654,-4.916464 -3.76628,-7.304054 -0.85168,-3.390572 -0.0837,-7.89571 1.8419,-10.805548 0.69186,-1.04548 0.69313,-1.056163 0.27257,-2.286722 -0.83349,-2.438764 -0.81391,-4.51784 0.0764,-8.116034 1.21823,-4.92334 1.15681,-5.825854 -1.52916,-22.468319 -1.38537,-8.583891 -1.48042,-9.895272 -0.88629,-12.228151 1.87235,-7.3517819 9.34297,-11.9165786 16.466,-10.061265 3.50309,0.9124392 7.15421,3.719161 8.76076,6.734645 0.79598,1.494061 1.48953,3.930849 1.48953,5.233467 v 0.884456 l -1.19781,-0.164178 c -0.6588,-0.0903 -1.51528,-0.164179 -1.9033,-0.164179 -0.61724,0 -0.72511,-0.122715 -0.86236,-0.98103 -0.2569,-1.606528 -1.63082,-4.031787 -3.02035,-5.331526 -2.3463,-2.194693 -5.19067,-2.991127 -8.33845,-2.334797 -3.29142,0.686281 -5.61462,2.558574 -7.04116,5.674557 -0.96053,2.098074 -0.91258,4.317531 0.23993,11.105248 2.23622,13.170132 2.82612,17.66736 2.69226,20.52476 -0.10047,2.144737 -0.27568,3.088204 -0.83902,4.518029 -0.67213,1.705946 -1.03375,4.728238 -0.61576,5.146368 0.0853,0.08532 0.90283,-0.194784 1.81675,-0.622461 3.90819,-1.828862 7.99141,-1.563096 11.55003,0.751754 1.0506,0.683405 1.21177,0.72298 1.42109,0.348939 0.46996,-0.839767 0.24967,-3.755613 -0.45032,-5.960643 -0.3742,-1.17879 -0.68037,-2.195347 -0.68037,-2.259015 0,-0.06367 0.87546,-0.115759 1.94547,-0.115759 h 1.94547 l 0.46801,1.097235 c 1.3256,3.107815 1.39738,6.692084 0.18788,9.380995 l -0.70676,1.57126 0.52316,0.886698 c 1.50555,2.551718 2.41687,8.729152 1.23475,8.369883 -0.16799,-0.05106 -0.82824,-0.155474 -1.46721,-0.232041 -0.79058,-0.09473 -0.9968,-0.06616 -0.64544,0.08942 0.28399,0.125746 0.89393,0.236794 1.35541,0.246772 0.7209,0.01559 0.83907,0.110194 0.83907,0.671725 0,1.80257 -1.88858,5.87003 -3.86352,8.320898 l -1.23179,1.52864 1.96676,0.303666 c 5.10957,0.788907 9.00623,4.162863 10.45769,9.054861 0.37666,1.269524 0.41605,6.37838 0.41605,53.968473 0,57.97973 0.11169,54.02558 -1.61147,57.04936 -1.86595,3.27433 -5.60522,5.83624 -8.96275,6.14069 l -1.55992,0.14145 -0.0465,-1.77852 c -0.0386,-1.47698 -0.061,-1.55966 -0.13201,-0.48767 -0.047,0.70998 -0.14446,1.55227 -0.21656,1.87176 l -0.13108,0.58089 -6.90121,-0.0327 c -3.79567,-0.018 -7.59828,-0.12639 -8.45025,-0.24085 z m 17.19453,-7.24908 c 1.32718,-0.44436 2.49535,-1.42147 3.13898,-2.62558 l 0.57851,-1.08228 0.0685,-51.37644 c 0.0468,-35.04574 -0.0174,-51.791723 -0.20177,-52.68291 -0.33151,-1.602173 -1.50863,-3.102476 -2.9466,-3.755585 -0.95046,-0.431691 -1.83193,-0.477875 -9.21847,-0.483003 l -8.16751,-0.0057 -1.37602,0.718844 c -1.11394,0.581927 -1.51294,0.980929 -2.09487,2.094865 l -0.71884,1.376022 0.006,51.927857 c 0.005,49.99354 0.0235,51.96631 0.48379,52.96054 0.60852,1.31433 1.75866,2.3953 3.03131,2.84899 1.30246,0.46431 16.06882,0.53582 17.41727,0.0844 z M 126.77981,77.82752 c 1.72107,-1.192698 3.58972,-3.963352 4.12757,-6.119947 0.33214,-1.33176 0.32906,-1.330461 2.36337,-0.995373 0.66838,0.110092 1.16234,0.114598 1.0977,0.01002 -0.0646,-0.104583 -0.81462,-0.271061 -1.66662,-0.369947 -0.85201,-0.09889 -1.48669,-0.280781 -1.4104,-0.404211 0.16269,-0.263251 -0.1218,-2.636502 -0.36201,-3.019887 -0.1075,-0.171574 -0.83764,-0.08737 -2.10105,0.242316 -2.25161,0.587546 -4.26347,0.494523 -6.58591,-0.304512 -0.81292,-0.279687 -1.57118,-0.450954 -1.68503,-0.380596 -0.45377,0.280445 -0.74577,2.657592 -0.5068,4.125856 0.30348,1.864663 1.03502,3.381383 2.49581,5.174664 0.9678,1.188063 2.73966,2.698716 3.16536,2.698716 0.0659,0 0.54651,-0.295693 1.06801,-0.657096 z m 0.90066,-14.552652 c -0.21645,-0.350219 -2.08303,-0.607362 -2.97952,-0.410461 -1.31773,0.289425 -0.59008,0.646171 1.31799,0.646171 1.02424,0 1.74409,-0.102121 1.66153,-0.23571 z"
   id="path1224" /><path
   style="fill:#ffffff;stroke:#ffffff;stroke-width:0.258173"
   d="m 131.69557,47.013006 c -0.64742,-0.604788 -0.80182,-0.954972 -0.80182,-1.818615 0,-2.53009 3.13893,-21.564196 3.75152,-22.748828 0.47903,-0.926341 1.11159,-1.27537 2.3114,-1.27537 1.79913,0 2.97314,1.104282 2.97314,2.796554 0,0.741061 -1.98188,14.102676 -2.82782,19.064857 -0.67611,3.965973 -1.23414,4.730416 -3.45314,4.730416 -0.91431,0 -1.31659,-0.154259 -1.95328,-0.749014 z"
   id="path1263" /><path
   style="fill:#ffffff;stroke:#ffffff;stroke-width:0.258173"
   d="m 129.56266,196.66206 c -0.37711,-0.31878 -0.81277,-0.83337 -0.96815,-1.14352 -0.18724,-0.37378 -0.28249,-3.40313 -0.28249,-8.98434 0,-9.24472 0.0461,-9.55388 1.54059,-10.3267 0.41653,-0.2154 1.22951,-0.39163 1.80663,-0.39163 0.83467,0 1.24657,0.18072 2.01366,0.88347 l 0.96436,0.88348 0.0746,8.54421 c 0.0821,9.40715 0.0294,9.78864 -1.47399,10.67674 -1.08266,0.63955 -2.83072,0.57214 -3.67519,-0.14171 z"
   id="path1302" /></svg>
