<?xml version="1.0" encoding="UTF-8" standalone="no"?>
<!-- Generator: Adobe Illustrator 23.0.1, SVG Export Plug-In . SVG Version: 6.00 Build 0)  -->

<svg
   version="1.1"
   id="Vrstva_1"
   x="0px"
   y="0px"
   viewBox="0 0 183.9 187.9"
   style="enable-background:new 0 0 183.9 187.9;"
   xml:space="preserve"
   sodipodi:docname="one_place.svg"
   inkscape:version="1.1.1 (3bf5ae0d25, 2021-09-20)"
   xmlns:inkscape="http://www.inkscape.org/namespaces/inkscape"
   xmlns:sodipodi="http://sodipodi.sourceforge.net/DTD/sodipodi-0.dtd"
   xmlns="http://www.w3.org/2000/svg"
   xmlns:svg="http://www.w3.org/2000/svg"><defs
   id="defs20" /><sodipodi:namedview
   id="namedview18"
   pagecolor="#ffffff"
   bordercolor="#666666"
   borderopacity="1.0"
   inkscape:pageshadow="2"
   inkscape:pageopacity="0.0"
   inkscape:pagecheckerboard="0"
   showgrid="false"
   inkscape:zoom="4.4278873"
   inkscape:cx="92.030346"
   inkscape:cy="94.062918"
   inkscape:window-width="1920"
   inkscape:window-height="1017"
   inkscape:window-x="-8"
   inkscape:window-y="-8"
   inkscape:window-maximized="1"
   inkscape:current-layer="Vrstva_1" />
<style
   type="text/css"
   id="style2">
	.st0{fill:#B3B0B0;}
</style>
<g
   id="g15">
	<path
   id="path3952_1_"
   class="st0"
   d="M21,166.1v-25.8c0-26.7-0.4-27.7,1-28.6c0.7-0.5,1.7-0.4,5.2-0.5l4-0.1l0.1-16.3   c0.1-18.1,0-17.2,1.7-18.4c0.7-0.5,0.9-0.6,7.5-0.7l6.8-0.1l0.1-14.5c0-5.2,0.1-9.8,0.1-12.4c0-1.4,0-2.2,0-2.2   c2.9-2.8,3.9,0.6,4,3.2c0.1,2.3,0.1,5.8,0.1,11.6l0,14.3c0,0,5.6,0.1,11.2,0l10.2-0.1l0.1-9.2c0.1-8.3,0-9.5,0.4-10   c0.2-0.4,0.5-0.6,1.2-0.6c0,0,14.4-0.2,14.4-0.2l0.1-14.8l0.1-14.9c0,0-3.6-0.1-6.7-0.2l-6.1,0c0,0,0,3.4,0,5.6   c0,4.1,0,4.4-0.5,5.2c-1,1.5-1.7,1.7-5.7,1.6c-3.2-0.1-3.6-0.1-4.2-0.6c-1.3-1-1.5-1.7-1.5-6.8c0-4.6-0.1-4.8-0.1-4.8   s-3.5-0.1-6.6-0.1c-4.3,0-5.7,0.1-5.9,0.3c-0.2,0.2-0.3,2.7-0.3,7l0,16.7c-2.1,1.4-2.6,0.5-4-1l-0.1-16.6c-0.1-7.8,0-8.5,1.1-9.6   c0.3-0.3,1.1-0.6,1.6-0.6c0.9-0.1,39,0,41.3,0.1c1.1,0.1,1.6,0.6,1.8,1.2c0.2,0.5,0.1,1.4,0.1,2.2v14.5c0,8.5,0,15.5,0.1,15.5   c0,0,10.3,0.1,22.9,0.2c22.6,0.1,22.7,0.2,23.5,0.5c0.4,0.2,0.8,0.4,1.1,0.8c0.5,0.6,0.5,1.4,0.6,12.5c0.1,7.8,0.2,35.7,0,36.4   c-0.5,1.7-4.1,1.6-4.1-0.2l-0.1-23.8V71V60l-12,0.1l-12,0.1l-0.1,5.1l-0.1,3.9c0,1.6-1.1,2.7-2.5,3l-3,0c-4.2,0.1-4.9-0.1-5.8-1.6   c-0.5-0.8-0.5-1-0.5-5.7V60l-12,0.1l-12,0.1l-0.1,25.2c0,18.4,0,25.3,0.2,25.5c0.2,0.3,2.2,0.3,11,0.3h10.2   c1.4,0.1,1.8,1.4,1.8,2.1l0.1,4.1l0.1,5.1H119h18.2l0.1-16.9l0.1-16.9l0.7-0.6c0.7-0.6,1.2-0.7,2.1-0.3c1.2,0.5,1.2,0.1,1.3,18   l0.1,16.7l10.4,0.1l9.7,0.1c0.9,0,1.6,0.2,2.1,0.5c0.9,0.9,0.8,1.1,0.8,22.8v20.8c-0.1,0.9-0.1,1.2-1.6,1.2h-54.8   c-40.5,0-55-0.1-55.4-0.3c-0.7-0.3-1.3-1.5-1.1-2.4c0.1-0.4,0.4-0.9,0.7-1.1c0.6-0.5,1-0.5,21.9-0.5c11.7,0,21.9-0.2,21.9-0.2   s0.2-2.5,0.2-24.2v-24H81.6H66.7l0,4.7c0,5.2-0.2,5.8-1.5,6.8c-0.6,0.5-1,0.5-4.6,0.5c-7.1,0.1-6.1-3.5-6.1-8v-4l-14.8,0.1   l-14.8,0.1L25,139.4c0,17.4,0.1,24.3,0.1,24.3c0,0.1,2.3,0.2,10.6,0.2H46c28.4,0,193.8,4.1-12,4.3C22.1,168.1,20.9,168.7,21,166.1   L21,166.1z M160.5,163.7c0-0.1,0.2-5.4,0.1-18.5l-0.1-18.1l-12-0.1l-12-0.1v4.7c0,4.1-0.1,4.8-0.4,5.5c-0.9,1.6-1.3,1.8-5.3,1.9   c-4,0.1-4.7-0.1-5.6-1.3c-0.4-0.6-0.5-1.1-0.6-5.6l-0.1-5l-12-0.1l-12-0.1v18.3c0,14.4-0.1,18.4-0.1,18.4c0,0,13.9,0.1,30.1,0.1   C155.2,163.8,160.5,163.7,160.5,163.7z M132.3,130.8l0.1-3.9h-1.7c-1.4,0-2.1,0-2.1,0c0,0.5,0,7.6,0,7.8c0.1,0,1.1,0.1,2,0.1l1.6,0   L132.3,130.8z M62.5,119.4l0.1-3.9h-1.8H59v3.9v3.9h3.4L62.5,119.4z M73,95.6L73.1,80l-6.4,0.1l-6.4,0.1l-0.1,5   c-0.1,4.3-0.2,5.1-0.5,5.6c-0.8,1.2-1.6,1.4-5.5,1.4c-3,0-3.6-0.1-4.2-0.5c-1.5-0.9-1.6-1.3-1.7-6.7l-0.1-4.9h-6.3h-6.3l-0.1,15   c0,8.3,0,15.2,0.1,15.5l0.1,0.5l18.6-0.1l18.6-0.1L73,95.6z M56.1,84v-3.8h-1.8h-1.8L52.6,84l-0.1,3.9l1.8-0.1l1.8-0.1L56.1,84z    M109,64V60h-1.8h-1.8v3.8c0,2.1,0,4.1,0,4c0,0,1,0,1.9,0h1.6L109,64z M72.1,29.9c0-2.3,0-4.1,0-4.1s-0.9,0-1.8,0   c-0.8,0-1.7,0-1.7,0s0,1.8,0,4.1v3.9h1.8h1.8L72.1,29.9z" />
	<g
   id="g13">
		<line
   class="st0"
   x1="140.3"
   y1="158.6"
   x2="155"
   y2="158.6"
   id="line5" />
		<path
   class="st0"
   d="M140.3,160.6H155c1.1,0,2-0.9,2-2c0-1.1-0.9-2-2-2h-14.8c-1.1,0-2,0.9-2,2    C138.3,159.8,139.2,160.6,140.3,160.6"
   id="path7" />
		<line
   class="st0"
   x1="30.5"
   y1="159.2"
   x2="45.3"
   y2="159.2"
   id="line9" />
		<path
   class="st0"
   d="M30.5,161.2h14.8c1.1,0,2-0.9,2-2c0-1.1-0.9-2-2-2H30.5c-1.1,0-2,0.9-2,2C28.5,160.3,29.4,161.2,30.5,161.2"
   id="path11" />
	</g>
</g>
<path
   style="fill:#ffffff;stroke:#ffffff;stroke-width:0.225841"
   d="m 21.976401,167.70547 c -0.537923,-0.24186 -0.755734,-0.51432 -0.858999,-1.07452 -0.07609,-0.41277 -0.107496,-12.59022 -0.06979,-27.061 0.05306,-20.36427 0.132031,-26.45335 0.349419,-26.94251 0.466595,-1.0499 1.429834,-1.28766 5.216764,-1.28766 1.851654,0 3.684233,-0.0635 4.072398,-0.14115 l 0.705754,-0.14115 0.01325,-13.465791 c 0.0073,-7.406185 0.09164,-14.85466 0.187458,-16.55217 0.27886,-4.940394 0.2967,-4.952571 7.590821,-5.181473 2.856892,-0.08965 5.863669,-0.171601 6.681725,-0.182103 l 1.487376,-0.01911 0.18245,-14.510306 c 0.100346,-7.980668 0.193241,-19.540922 0.206435,-25.689452 0.02618,-12.200261 0.0032,-11.977701 1.340452,-12.965566 0.638119,-0.471384 0.666051,-0.47195 21.635745,-0.438196 15.699225,0.02527 21.161157,0.101877 21.648229,0.303629 0.396277,0.164143 0.745631,0.540052 0.891931,0.959729 0.161223,0.462502 0.240498,5.889781 0.240498,16.465101 v 15.775193 l 7.283383,0.01951 c 4.00586,0.01073 14.34657,0.09029 22.97935,0.176791 14.80679,0.148373 15.73647,0.181366 16.41072,0.58242 1.40182,0.833824 1.31632,-1.322985 1.33445,33.662085 0.009,17.638209 0.0345,32.196499 0.0565,32.351769 0.0307,0.21781 1.52315,0.28712 6.53278,0.30338 3.57111,0.0116 8.44658,0.0878 10.83436,0.16938 4.11618,0.14061 4.3681,0.17499 4.85559,0.66266 l 0.51416,0.51436 0.0609,21.71528 c 0.0335,11.94341 -0.0173,21.78671 -0.11292,21.874 -0.0956,0.0873 -31.98357,0.2222 -70.862153,0.2998 -61.13215,0.12201 -70.785763,0.0973 -71.408993,-0.18294 z m 52.50315,-3.94345 c 18.780051,-0.12215 21.547003,-0.1831 21.733771,-0.47873 0.131248,-0.20776 0.215351,-9.57488 0.217472,-24.22149 l 0.0035,-23.88272 H 81.553948 66.673643 l -0.09203,4.79913 c -0.100169,5.22369 -0.209544,5.72126 -1.476778,6.71807 -0.588834,0.46318 -0.815118,0.48658 -4.013197,0.41516 -2.99361,-0.0669 -3.512799,-0.13658 -4.448349,-0.59741 -0.79362,-0.39091 -1.17582,-0.76268 -1.524429,-1.48281 -0.421874,-0.87147 -0.465258,-1.37907 -0.465258,-5.44349 v -4.4824 l -11.009765,0.14954 c -6.055371,0.0823 -12.770177,0.14966 -14.921791,0.1498 l -3.912025,2.5e-4 0.07272,23.99565 c 0.04,13.1976 0.154942,24.12267 0.255432,24.27794 0.204173,0.31546 10.898032,0.33356 49.341374,0.0835 z m 86.207439,-4.11387 c 0.0912,-2.24775 0.0903,-10.53048 -0.002,-18.40607 l -0.16779,-14.31925 -10.53007,-0.002 c -5.79154,-9e-4 -11.2073,-0.0656 -12.03503,-0.14376 l -1.50496,-0.14215 -0.0759,4.94289 c -0.0717,4.66914 -0.10418,4.98831 -0.58607,5.76322 -0.783,1.2591 -1.46925,1.43808 -5.51411,1.43808 -3.23667,0 -3.59466,-0.0404 -4.17806,-0.472 -1.1509,-0.85133 -1.26076,-1.37335 -1.38048,-6.55907 l -0.11073,-4.79709 -11.99471,-0.0707 c -6.59709,-0.0389 -12.00682,-0.0707 -12.02164,-0.0707 -0.0148,0 -0.0987,8.30814 -0.18649,18.46253 l -0.15957,18.46253 h 30.14094 30.14095 z m -28.34397,-27.15813 c 0,-1.28549 0.0657,-3.11481 0.14607,-4.06514 l 0.14605,-1.72789 h -2.06571 -2.06571 v 4.06515 4.06514 h 1.91965 1.91965 z M 62.560013,120.54281 c 0.0011,-1.5216 0.06605,-3.3001 0.144379,-3.95222 l 0.142415,-1.18567 h -1.951109 -1.951109 v 3.95223 3.95222 h 1.806731 1.806731 l 0.002,-2.76656 z m 74.827367,-12.85375 c 0.0825,-8.21853 0.15,-22.361234 0.15,-31.42823 V 59.775383 l -6.13441,0.149207 c -3.37393,0.08206 -8.81106,0.149206 -12.08251,0.149206 h -5.94811 l -0.0226,2.992398 c -0.0124,1.645819 -0.0887,3.99117 -0.16938,5.211892 -0.14564,2.20266 -0.15315,2.225352 -0.99034,2.992397 l -0.84359,0.772904 h -3.6391 c -4.17857,0 -4.81075,-0.1768 -5.59004,-1.563359 -0.45911,-0.816889 -0.48867,-1.164739 -0.48867,-5.751694 v -4.882218 l -12.026049,0.145198 c -6.614328,0.07986 -12.073893,0.187399 -12.132368,0.238977 -0.192105,0.169451 -0.124141,50.614949 0.06846,50.808069 0.103387,0.10368 4.930746,0.21458 10.727463,0.24646 5.796717,0.0319 10.766302,0.10957 11.04352,0.17265 0.784554,0.17852 1.189674,1.22972 1.190604,3.08933 4.5e-4,0.90671 0.0671,3.09678 0.14805,4.86681 l 0.14723,3.21824 h 18.22094 18.22093 z m -64.363993,-2.70953 c 0.08206,-3.37392 0.149207,-10.386296 0.149207,-15.583052 v -9.448644 l -5.250811,0.02234 c -2.887946,0.01229 -5.809769,0.0885 -6.492939,0.169381 l -1.242127,0.147045 -0.131634,4.855589 c -0.143224,5.283023 -0.245255,5.749496 -1.412039,6.455613 -0.62521,0.378366 -1.167372,0.432548 -4.328202,0.432548 -3.451985,0 -3.647403,-0.02421 -4.372997,-0.541717 -1.222884,-0.872183 -1.371903,-1.531344 -1.535774,-6.793222 L 48.258218,79.947834 H 41.857654 35.45709 V 95.530886 111.11394 H 54.165635 72.874181 Z M 55.020596,87.852281 h 1.213897 v -3.839303 -3.839303 h -1.919651 -1.919651 v 3.980454 3.980453 l 0.705754,-0.14115 c 0.388165,-0.07763 1.252008,-0.141151 1.919651,-0.141151 z M 73.205004,66.195189 c 0.07357,-8.646116 0.114764,-9.499505 0.47791,-9.900746 0.373081,-0.412219 0.855205,-0.447785 7.878525,-0.581178 4.114617,-0.07815 7.505301,-0.170693 7.534853,-0.205653 0.02955,-0.03496 0.126288,-6.729984 0.214974,-14.87783 L 89.472509,25.815516 87.724956,25.667794 C 86.7638,25.586546 83.80772,25.520071 81.155886,25.520071 h -4.821513 l -9.04e-4,5.02497 c -6.77e-4,4.582357 -0.03961,5.08854 -0.440901,5.746683 -0.862989,1.415345 -1.286708,1.53722 -5.326195,1.531984 -3.074265,-0.004 -3.731933,-0.06578 -4.239523,-0.398367 -1.278916,-0.837979 -1.361613,-1.18171 -1.581377,-6.573039 -0.111949,-2.746408 -0.250584,-5.042984 -0.308079,-5.103502 -0.0575,-0.06052 -2.845011,-0.111332 -6.194482,-0.11292 -4.778767,-0.0023 -6.129321,0.06079 -6.272825,0.292893 -0.35825,0.579426 -0.476825,7.669436 -0.477568,28.55545 l -6.94e-4,21.172626 H 62.30816 73.124494 Z m 35.876366,-2.28209 v -4.065144 h -1.91965 -1.91966 v 4.065144 4.065144 h 1.91966 1.91965 z M 72.269228,29.811057 v -4.065144 h -1.919651 -1.919651 v 4.065144 4.065144 h 1.919651 1.919651 z"
   id="path948" /><path
   style="fill:#ffffff;stroke:#ffffff;stroke-width:0.225841"
   d="m 29.236188,160.47054 c -0.733487,-0.73349 -0.7478,-1.89528 -0.03164,-2.56808 0.516811,-0.48552 0.614863,-0.49105 8.705157,-0.49105 h 8.182458 l 0.554338,0.55434 c 0.304886,0.30489 0.554338,0.76726 0.554338,1.0275 0,0.64836 -0.582002,1.7208 -1.026404,1.89134 -0.201073,0.0771 -3.969709,0.14028 -8.374748,0.14028 h -8.009162 z"
   id="path987" /><path
   style="fill:#ffffff;stroke:#ffffff;stroke-width:0.225841"
   d="m 139.68287,160.35969 c -1.37709,-0.56363 -1.74783,-2.19785 -0.70257,-3.09694 l 0.61483,-0.52886 h 7.95453 c 6.92802,0 8.02113,0.0467 8.47071,0.36155 0.74479,0.52168 1.01929,1.38451 0.69191,2.17488 -0.52254,1.26152 -0.82279,1.30423 -9.05729,1.28856 -4.13624,-0.008 -7.7237,-0.0975 -7.97212,-0.19919 z"
   id="path1026" /></svg>
