<?xml version="1.0" encoding="UTF-8"?><svg id="Vrstva_1" xmlns="http://www.w3.org/2000/svg" viewBox="0 0 36.4586 36.4586"><g id="Group_294"><path id="Path_115" d="M23.8009,22.2812c-.4852-.1801-1.0304-.0714-1.4094,.2811-.4314,.4044-.8574,.8722-1.2807,1.2456-.6833,.6117-1.7001,.6661-2.4448,.1308-2.316-1.7633-4.3837-3.8308-6.1473-6.1466-.5354-.7447-.481-1.7614,.1307-2.4448,.3734-.4233,.8385-.8493,1.2457-1.2807,.3525-.379,.4612-.9242,.2811-1.4094l-1.8118-4.9637c-.1521-.4215-.5317-.7189-.9774-.7657-1.2207-.056-2.4214,.3244-3.3871,1.0731-4.4103,3.5151-2.62,9.9172,3.9607,16.4986,6.5807,6.5814,12.9835,8.3716,16.4986,3.9607,.7488-.9657,1.1292-2.1664,1.0731-3.3871-.0469-.4456-.3443-.8251-.7657-.9774l-4.9656-1.8145Z" fill="none" stroke="#1d1d1b" stroke-linecap="round" stroke-linejoin="round" stroke-width="1.0219"/><path id="Path_116" d="M18.4726,12.0418c2.8746-.4095,5.537,1.5889,5.9464,4.4636,.0701,.4918,.0701,.991,0,1.4828" fill="none" stroke="#1d1d1b" stroke-linecap="round" stroke-linejoin="round" stroke-width="1.0219"/><path id="Path_117" d="M17.9475,8.8792c4.6209-.6984,8.9331,2.4815,9.6314,7.1025,.1267,.8382,.1267,1.6907,0,2.529" fill="none" stroke="#1d1d1b" stroke-linecap="round" stroke-linejoin="round" stroke-width="1.0219"/><path id="Path_118" d="M17.5627,5.6963c6.3788-.9109,12.2883,3.5218,13.1992,9.9006,.1562,1.094,.1562,2.2046,0,3.2986" fill="none" stroke="#1d1d1b" stroke-linecap="round" stroke-linejoin="round" stroke-width="1.0219"/></g></svg>