<?xml version="1.0" encoding="UTF-8" standalone="no"?>
<!-- Generator: Adobe Illustrator 23.0.1, SVG Export Plug-In . SVG Version: 6.00 Build 0)  -->

<svg
   version="1.1"
   id="Vrstva_1"
   x="0px"
   y="0px"
   viewBox="0 0 183.9 187.9"
   style="enable-background:new 0 0 183.9 187.9;"
   xml:space="preserve"
   sodipodi:docname="quality.svg"
   inkscape:version="1.1.1 (3bf5ae0d25, 2021-09-20)"
   xmlns:inkscape="http://www.inkscape.org/namespaces/inkscape"
   xmlns:sodipodi="http://sodipodi.sourceforge.net/DTD/sodipodi-0.dtd"
   xmlns="http://www.w3.org/2000/svg"
   xmlns:svg="http://www.w3.org/2000/svg"><defs
   id="defs18" /><sodipodi:namedview
   id="namedview16"
   pagecolor="#ffffff"
   bordercolor="#ffffff"
   borderopacity="1"
   inkscape:pageshadow="2"
   inkscape:pageopacity="0"
   inkscape:pagecheckerboard="0"
   showgrid="false"
   inkscape:zoom="4.4278873"
   inkscape:cx="92.030346"
   inkscape:cy="94.062918"
   inkscape:window-width="1920"
   inkscape:window-height="1017"
   inkscape:window-x="-8"
   inkscape:window-y="-8"
   inkscape:window-maximized="1"
   inkscape:current-layer="Vrstva_1" />
<style
   type="text/css"
   id="style2">
	.st0{fill:#B3B0B0;}
</style>
<path
   id="path1848_2_"
   class="st0"
   d="M74.7,167.5c-0.8-0.9-2.9-3.4-4.7-5.6c-1.8-2.2-3.3-4.2-3.5-4.4c-0.2-0.2-4.6,1.2-9.7,3.1  c-5.2,1.9-9.7,3.5-10,3.5c-0.8,0-2.7-0.5-2.3-2.4c0.1-0.3,0.4-1.6,1-2.7c0.5-1.2,2.9-6.5,5.3-11.9c2.4-5.4,4.5-10.2,4.8-10.8  c0.3-0.6,2.4-5.3,4.7-10.5l4.3-9.5l-1.1-0.8c-11.4-7.8-18.8-18.3-22.5-32.1c-0.9-3.5-1.5-5.7-1.5-12.1c0-7,0.4-8.2,1.7-13  c5-18.9,18.9-32.7,37.9-38c4.3-1.2,6.6-1.6,13.1-1.6c6.3,0,8.7,0.4,13.2,1.7c22.5,6.2,38,25.3,39.3,48.2c1,17.1-7.2,34.6-20.8,44.6  l-4,2.9l0.7,1.5c0.4,0.9,2.6,5.8,4.9,11.1c12.4,27.7,14.4,32.3,14.4,32.9c0,0.8-0.4,2.4-2.4,2.4c-0.3,0-4.4-1.5-9.2-3.3  c-4.8-1.8-9-3.4-9.5-3.5c-0.5-0.1-1.9,1.2-4,3.9c-6.4,8.1-7.5,9-9.1,7c-0.4-0.5-3.5-7.8-6.9-16.3c-3.4-8.5-6.3-15.4-6.5-15.4  c-0.2,0-3.1,6.9-6.5,15.4c-3.4,8.5-6.5,15.8-6.9,16.3C77.4,169.6,76.3,169.4,74.7,167.5L74.7,167.5z M83.8,142.9  c4-9.9,7.2-18.5,7.2-18.7c0,0-1.7-0.1-3.7-0.4c-4.6-0.5-11.8-2.3-15.5-3.9l-2.9-1.3l-0.7,1.4c-0.4,0.7-2.5,5.5-4.8,10.6  c-2.3,5.1-5.8,13.1-7.9,17.7c-2.1,4.6-3.7,8.5-3.6,8.6c0.1,0.1,3.5-1.1,7.6-2.6c5.6-2.1,7.7-2.7,8.3-2.3c0.4,0.3,2.4,2.5,4.3,4.8  c1.9,2.4,3.7,4.3,4,4.2C76.4,160.9,79.9,152.8,83.8,142.9L83.8,142.9z M111.7,156.7c1.9-2.3,3.8-4.4,4.3-4.7  c0.6-0.4,2.7,0.2,8.3,2.3c4.1,1.5,7.5,2.7,7.6,2.6c0.1-0.1-1-2.8-2.5-6.1c-4.1-9.2-4.2-9.3-9.1-20.4c-2.6-5.8-5.2-11.4-5.3-11.6  c0,0-0.9,0.2-3,1.1c-3.3,1.5-11.5,3.5-13.7,3.8c-0.8,0.1-1.7,0.2-1.7,0.2c-0.1,0.1-0.4,1-0.8,1.9c-0.5,1.3-1,2.7-1,3.2  s2.6,7.4,5.8,15.4c3.2,8,6,15,6.3,15.7c0.3,0.6,0.7,1.1,0.9,1C108,161,109.8,159,111.7,156.7L111.7,156.7z M104.8,117.3  c16.2-4.8,28.3-16.9,33.1-33.3c2.7-10.7,1.5-22.7-2.4-31.8c-4.5-10.4-13.8-19.7-24.2-24.2c-7.3-3.2-10.8-4.1-19.3-4.1  c-8.5,0-12,0.9-19.2,4.1C62.3,32.5,53,41.7,48.5,52.1c-3.2,7.3-4.3,10.4-4.3,18.9c0,6.7,0.6,8.7,1.6,12.2  c5.1,17.5,17.2,29.6,34.1,34.3c3,0.8,4.5,1.1,6.5,1.2c1.7,0.1,4,0.3,7.4,0.2C99.4,118.8,101.1,118.4,104.8,117.3L104.8,117.3z   M85.5,113.4c-6.9-1.3-13.2-3.7-18.6-7.7c-7.9-5.8-13-13.1-15.9-22.6c-6.3-28,9.5-46.2,29.2-52.6c8.1-2.1,16.1-2.2,23.4,0  c8.5,2.6,16,7.6,21.4,14.4c3.8,4.7,6,9.1,7.8,15c1.3,4.3,1.7,6.4,1.6,11.6c0.2,4.6-0.5,7.8-1.6,11.7c-5.5,18.2-20.8,30.1-39.4,30.7  C90.3,113.9,86.9,113.7,85.5,113.4L85.5,113.4z M103.7,107.1c11.5-4,20.2-12.7,24.2-24.6c1.3-3.9,1.7-6.8,1.7-11  c0-4.8-0.4-7.2-1.7-11.1C123.7,48,115.5,39.7,103,35.5c-7.4-2-15.5-2.2-22,0C68.5,39.7,60.3,48,56.1,60.4c-2,7.4-2.2,15.6,0,22.1  c4.2,12.4,12.5,20.8,24.6,24.7c5.3,1.7,6,1.8,12.8,1.6C98.3,108.6,100,108.3,103.7,107.1L103.7,107.1z" />
<g
   id="g7">
	<path
   class="st0"
   d="M74,74.8l13.3,18.6L112,59.4c1.3-1.8,0.9-4.3-0.9-5.6c-1.8-1.3-4.3-0.9-5.6,0.9L87.4,79.7l-6.9-9.6   c-1.3-1.8-3.8-2.2-5.6-0.9C73.1,70.5,72.7,73,74,74.8L74,74.8z"
   id="path5" />
</g>
<g
   id="g13">
	<line
   class="st0"
   x1="111.6"
   y1="126.3"
   x2="116.5"
   y2="137.5"
   id="line9" />
	<path
   class="st0"
   d="M109.3,127.3l4.9,11.1c0.6,1.3,2,1.8,3.3,1.3c1.3-0.6,1.8-2,1.3-3.3l-4.9-11.1c-0.6-1.3-2-1.8-3.3-1.3   C109.4,124.6,108.8,126.1,109.3,127.3"
   id="path11" />
</g>
<path
   style="fill:#ffffff;fill-opacity:1;stroke:#ffffff;stroke-width:0.225841"
   d="m 75.48333,168.08242 c -0.909666,-0.88546 -4.140302,-4.71391 -7.1466,-8.46905 -1.13628,-1.41932 -1.918156,-2.20196 -2.199823,-2.20196 -0.484518,0 -6.152622,1.90838 -14.080478,4.74071 -5.720921,2.04388 -6.258439,2.10796 -7.18696,0.85685 -0.411269,-0.55416 -0.427732,-0.70611 -0.171287,-1.58089 0.156043,-0.5323 0.622532,-1.73002 1.036643,-2.66162 5.525738,-12.43085 13.641877,-30.60621 15.941876,-35.70037 1.602658,-3.54966 2.913922,-6.56419 2.913922,-6.69896 0,-0.13477 -0.685993,-0.73104 -1.524429,-1.32504 -7.194136,-5.09679 -12.95303,-11.50531 -16.92452,-18.83368 -2.232887,-4.120222 -4.48437,-10.246392 -5.598082,-15.232099 -0.831651,-3.723013 -1.138874,-8.784978 -0.829015,-13.659246 0.261286,-4.110174 0.983352,-7.443044 2.768002,-12.776382 1.084204,-3.240089 3.941679,-9.14993 5.787432,-11.969591 4.901414,-7.487634 11.876399,-13.726551 19.934073,-17.830437 8.994592,-4.58107 16.650176,-6.294007 26.362672,-5.898645 4.4989,0.183134 6.707294,0.529232 10.788224,1.690727 15.83439,4.5067 28.34779,15.109271 34.67416,29.379319 7.90045,17.820605 5.51569,37.754362 -6.40321,53.523274 -2.4567,3.25026 -6.55935,7.23622 -10.31656,10.02314 -1.80108,1.33596 -3.30894,2.52481 -3.3508,2.64189 -0.0419,0.11707 4.09125,9.58699 9.18469,21.04426 9.59752,21.58885 10.65253,24.0436 10.65253,24.78593 0,0.24324 -0.29201,0.76906 -0.64891,1.1685 -0.49307,0.55184 -0.83205,0.72431 -1.41151,0.71814 -0.41943,-0.004 -4.76061,-1.4984 -9.64707,-3.31986 -4.88646,-1.82147 -9.11334,-3.31176 -9.39308,-3.31176 -0.63234,0 -2.38438,1.80935 -5.46721,5.64604 -3.0205,3.75912 -4.39859,5.24149 -5.34813,5.75286 -0.74545,0.40145 -0.82043,0.40378 -1.37152,0.0427 -0.32063,-0.21008 -0.78048,-0.76914 -1.0219,-1.24235 -0.73446,-1.43966 -3.06279,-6.97254 -6.382845,-15.16775 -4.787064,-11.81636 -6.528565,-15.83969 -6.815654,-15.746 -0.341604,0.11149 -2.141381,4.27436 -6.48152,14.9917 -5.273111,13.02117 -6.641154,16.11822 -7.441059,16.8455 -0.976204,0.88756 -1.804915,0.82262 -2.882052,-0.22584 z m 34.69441,-9.44491 c 1.16197,-1.35753 2.98348,-3.41969 4.0478,-4.58259 l 1.93514,-2.11437 0.95266,0.13058 c 0.52397,0.0718 3.96066,1.20113 7.63711,2.50959 3.67645,1.30845 6.78715,2.37901 6.91267,2.37901 0.3581,0 0.27359,-0.488 -0.35051,-2.02391 -1.05657,-2.60025 -14.0597,-31.6312 -15.9106,-35.52221 -0.16249,-0.34159 -0.43506,-0.62107 -0.60571,-0.62107 -0.17066,0 -1.45011,0.4507 -2.84323,1.00155 -3.94352,1.55931 -13.061147,3.96696 -15.022636,3.96696 -0.369641,0 -0.599103,0.35398 -1.134588,1.75027 -1.074736,2.80241 -1.178316,3.34154 -0.848556,4.41674 0.881237,2.87331 11.56047,29.79169 12.21615,30.79238 0.20121,0.30708 0.48638,0.51939 0.63373,0.4718 0.14735,-0.0476 1.21861,-1.19721 2.38057,-2.55473 z m -33.274963,1.08878 c 2.95594,-6.38147 14.111283,-34.38402 14.111283,-35.42267 0,-0.21521 -0.271432,-0.31712 -0.846905,-0.31795 -1.561305,-0.002 -6.915919,-0.88926 -10.107281,-1.67429 -4.083455,-1.00447 -6.496207,-1.77477 -8.973214,-2.86479 -1.09971,-0.48394 -2.084222,-0.87989 -2.187806,-0.87989 -0.231406,0 -1.472346,2.70157 -9.284554,20.2128 -7.242389,16.23397 -7.99871,18.04158 -7.587222,18.1334 0.162891,0.0363 3.183362,-0.9646 6.712157,-2.22435 3.528795,-1.25974 6.9467,-2.40238 7.595346,-2.53918 1.422335,-0.29999 1.330802,-0.36949 4.544348,3.45024 2.846696,3.38369 4.779394,5.42526 5.135923,5.42526 0.157525,0 0.55709,-0.58436 0.887925,-1.29858 z m 23.760283,-41.25275 c 2.75706,-0.56395 6.9151,-1.88133 9.70859,-3.07595 5.48501,-2.34564 10.15438,-5.42545 14.36979,-9.478 4.35471,-4.18648 7.28914,-8.140437 9.83673,-13.254377 3.46304,-6.951571 4.77514,-12.604872 4.78621,-20.621826 0.0152,-11.024711 -2.69098,-20.002119 -8.46289,-28.074213 -5.1108,-7.147533 -12.10616,-12.825956 -20.05631,-16.280532 -6.02423,-2.617705 -9.16182,-3.406039 -15.011519,-3.771706 -6.996857,-0.437377 -13.46318,0.25723 -18.14424,1.949039 -9.464261,3.420533 -17.213185,8.758239 -22.802803,15.707298 -3.256677,4.048728 -4.830871,6.694295 -7.111288,11.951124 -3.021203,6.964493 -3.591557,9.743076 -3.59274,17.502704 -9.26e-4,6.050448 0.194864,7.612908 1.529389,12.205119 3.478319,11.969186 10.335631,21.58743 19.920823,27.94146 5.998027,3.97609 14.313054,7.07359 20.468398,7.62484 3.166076,0.28355 12.618141,0.0726 14.56186,-0.32498 z"
   id="path6870" /><path
   style="fill:#ffffff;fill-opacity:1;stroke:#ffffff;stroke-width:0.225841"
   d="M 87.965201,113.58222 C 83.793989,113.25434 77.106221,111.28123 72.717905,109.08376 61.386767,103.40963 52.667385,92.069107 50.587048,80.300133 48.890078,70.699954 49.675862,62.321365 53.013482,54.427763 57.3496,44.172676 66.443113,35.764 77.802341,31.505764 c 7.545188,-2.828466 17.017945,-3.259065 24.842549,-1.129257 13.39592,3.646285 24.40716,13.801742 29.13937,26.874661 2.33014,6.437119 3.08654,12.522529 2.35795,18.970284 -0.62131,5.498396 -2.89031,11.998508 -5.98961,17.158729 -6.95238,11.575449 -18.4302,18.843489 -31.911657,20.207259 -2.594511,0.26246 -4.888724,0.26101 -8.275742,-0.005 z m 7.81351,-4.84219 c 12.163949,-0.61607 24.588609,-9.455627 30.321429,-21.572265 1.31645,-2.782388 2.61164,-6.587806 3.11069,-9.139582 0.20843,-1.06575 0.30864,-3.310288 0.30751,-6.888161 -0.002,-5.096377 -0.0272,-5.405989 -0.64388,-7.791526 -2.54548,-9.846502 -8.04575,-17.899605 -15.74284,-23.049558 -2.33453,-1.561982 -6.88391,-3.81951 -9.2446,-4.587428 -4.178164,-1.359129 -8.847007,-1.947643 -14.002167,-1.764992 -4.236382,0.150098 -7.035821,0.694933 -10.593682,2.061775 -9.9638,3.827842 -16.806684,10.062762 -21.22334,19.337729 -2.665979,5.598546 -3.482935,9.47266 -3.497258,16.584444 -0.01062,5.273427 0.308762,7.414372 1.690879,11.334618 4.441684,12.598428 13.201213,20.800146 26.283557,24.609806 3.89493,1.13423 5.652287,1.24912 13.233702,0.86514 z"
   id="path6909" /><path
   style="fill:#ffffff;fill-opacity:1;stroke:#ffffff;stroke-width:0.225841"
   d="m 81.641644,85.306841 c -8.418862,-11.793773 -8.243209,-11.52247 -8.243209,-12.731956 0,-1.369723 0.559427,-2.475688 1.652962,-3.26784 1.184529,-0.858069 3.073627,-0.922036 4.227102,-0.143135 0.425196,0.28712 2.308079,2.669256 4.328844,5.476652 1.966985,2.732681 3.656139,4.99578 3.753676,5.02911 0.09754,0.03333 4.354025,-5.708686 9.458864,-12.760035 6.544047,-9.039342 9.504497,-12.95119 10.037517,-13.263285 1.84103,-1.077957 4.39549,-0.2479 5.35838,1.741178 0.55654,1.149654 0.60111,1.924377 0.17007,2.956019 -0.20893,0.500018 -24.388782,34.104483 -25.072005,34.84434 -0.01439,0.01559 -2.566883,-3.530885 -5.672201,-7.881048 z"
   id="path6948" /><path
   style="fill:#ffffff;fill-opacity:1;stroke:#ffffff;stroke-width:0.225841"
   d="m 115.27356,139.3697 c -0.59177,-0.36086 -1.09049,-1.31617 -3.33116,-6.38092 -1.44935,-3.27608 -2.63519,-6.24026 -2.63519,-6.58705 0,-0.80002 0.55293,-1.88058 1.1167,-2.1823 0.23897,-0.12789 0.79527,-0.23253 1.23622,-0.23253 1.41448,0 1.89285,0.72069 4.62668,6.97033 2.9722,6.79456 3.05505,7.3011 1.38274,8.4537 -0.72586,0.50028 -1.53069,0.48643 -2.39599,-0.0412 z"
   id="path6987" /></svg>
