<?xml version="1.0" encoding="UTF-8" standalone="no"?>
<!-- Created with Inkscape (http://www.inkscape.org/) -->

<svg
   width="67.555695mm"
   height="67.629593mm"
   viewBox="0 0 67.555695 67.629593"
   version="1.1"
   id="svg2734"
   inkscape:version="1.1.1 (3bf5ae0d25, 2021-09-20)"
   sodipodi:docname="SEARCH - šedá.svg"
   xmlns:inkscape="http://www.inkscape.org/namespaces/inkscape"
   xmlns:sodipodi="http://sodipodi.sourceforge.net/DTD/sodipodi-0.dtd"
   xmlns="http://www.w3.org/2000/svg"
   xmlns:svg="http://www.w3.org/2000/svg">
  <sodipodi:namedview
     id="namedview2736"
     pagecolor="#ffffff"
     bordercolor="#666666"
     borderopacity="1.0"
     inkscape:pageshadow="2"
     inkscape:pageopacity="0.0"
     inkscape:pagecheckerboard="0"
     inkscape:document-units="mm"
     showgrid="false"
     inkscape:zoom="0.72337262"
     inkscape:cx="24.883441"
     inkscape:cy="78.106357"
     inkscape:window-width="1920"
     inkscape:window-height="1001"
     inkscape:window-x="-9"
     inkscape:window-y="-9"
     inkscape:window-maximized="1"
     inkscape:current-layer="layer1" />
  <defs
     id="defs2731" />
  <g
     inkscape:label="Vrstva 1"
     inkscape:groupmode="layer"
     id="layer1"
     transform="translate(-69.342015,-135.0366)">
    <path
       style="fill:#b3b0b0;stroke-width:0.211667;fill-opacity:1"
       d="m 69.507008,199.19345 c 0.13281,-0.23283 4.00935,-4.20272 8.61453,-8.82198 l 8.37305,-8.39866 -0.86619,-1.14725 c -2.49088,-3.29915 -4.18595,-6.95956 -5.1678,-11.15961 -0.59921,-2.56322 -0.76085,-7.92402 -0.31591,-10.4775 1.06509,-6.11255 3.56753,-11.09966 7.72433,-15.39382 4.25302,-4.39357 9.14517,-7.07038 15.273582,-8.35717 2.76355,-0.58026 8.09161,-0.52218 10.98947,0.11981 8.62529,1.91082 15.89535,7.46046 19.68315,15.02524 2.28559,4.56466 3.07593,7.88376 3.08246,12.94511 0.006,5.00252 -0.81853,8.56595 -2.9692,12.82501 -4.15106,8.2205 -11.84045,13.84153 -21.15505,15.46457 -2.55348,0.44493 -7.91427,0.2833 -10.4775,-0.31591 -4.199352,-0.9817 -7.860532,-2.67699 -11.158172,-5.16673 l -1.14583,-0.86511 -8.50591,8.48024 c -4.67826,4.66413 -8.72851,8.54689 -9.00057,8.62835 -1.37534,0.41184 -2.95655,-0.67265 -3.12586,-2.14389 -0.0517,-0.44955 0.0146,-1.00787 0.14742,-1.2407 z m 15.68104,-31.53833 c 0.6774,4.38735 2.84712,8.64043 6.1848,12.12343 5.18554,5.4113 11.850442,7.90973 19.255842,7.21829 10.54681,-0.98474 19.01531,-8.78697 20.99341,-19.34172 0.47878,-2.55468 0.33005,-7.30965 -0.30343,-9.70072 -2.3056,-8.7025 -8.60869,-15.00559 -17.31119,-17.31119 -2.39106,-0.63348 -7.14604,-0.78221 -9.70072,-0.30343 -6.514532,1.22091 -12.073772,4.89332 -15.584902,10.2953 -3.35688,5.16466 -4.50814,10.70953 -3.53381,17.02004 z m 20.695682,-21.20608 c 0.65431,-1.07309 1.11854,-1.21764 3.82053,-1.18963 4.05732,0.0421 7.37526,1.21154 10.51417,3.70591 1.72741,1.37271 2.0319,1.81534 2.0319,2.95375 0,1.02658 -0.52991,1.82545 -1.47196,2.21906 -1.0426,0.43563 -1.73955,0.21945 -3.28717,-1.01959 -2.56633,-2.05466 -4.97962,-2.91713 -8.17828,-2.92279 -2.11187,-0.004 -3.02804,-0.36267 -3.50813,-1.37439 -0.44091,-0.92914 -0.42012,-1.55384 0.0789,-2.37232 z"
       id="path2807" />
  </g>
</svg>
