<svg id="Group_348" data-name="Group 348" xmlns="http://www.w3.org/2000/svg" xmlns:xlink="http://www.w3.org/1999/xlink" width="28.996" height="34.795" viewBox="0 0 28.996 34.795">
  <defs>
    <clipPath id="clip-path">
      <rect id="Rectangle_368" data-name="Rectangle 368" width="28.996" height="34.795" fill="none" stroke="#707070" stroke-width="1.2"/>
    </clipPath>
  </defs>
  <g id="Group_339" data-name="Group 339" clip-path="url(#clip-path)">
    <path id="Path_168" data-name="Path 168" d="M25.091,30.891V37.27a2.9,2.9,0,0,1-2.9,2.9H9.434a2.9,2.9,0,0,1-2.9-2.9V9.435a2.9,2.9,0,0,1,2.9-2.9H22.192a2.9,2.9,0,0,1,2.9,2.9v4.059" transform="translate(-5.954 -5.955)" fill="none" stroke="#3e3e44" stroke-linecap="round" stroke-width="1.2"/>
    <line id="Line_75" data-name="Line 75" x2="18.557" transform="translate(0.58 5.799)" fill="none" stroke="#3e3e44" stroke-linecap="round" stroke-width="1.2"/>
    <line id="Line_76" data-name="Line 76" x2="18.557" transform="translate(0.58 27.836)" fill="none" stroke="#3e3e44" stroke-linecap="round" stroke-width="1.2"/>
    <line id="Line_77" data-name="Line 77" x2="4.059" transform="translate(7.829 3.19)" fill="none" stroke="#3e3e44" stroke-linecap="round" stroke-width="1.2"/>
    <path id="Path_169" data-name="Path 169" d="M97.647,334.7a1.45,1.45,0,1,0-1.45,1.45A1.45,1.45,0,0,0,97.647,334.7Z" transform="translate(-86.338 -303.672)" fill="none" stroke="#3e3e44" stroke-linecap="round" stroke-width="1.2"/>
    <rect id="Rectangle_367" data-name="Rectangle 367" width="19.717" height="13.918" rx="2" transform="translate(8.699 9.279)" fill="none" stroke="#3e3e44" stroke-linecap="round" stroke-width="1.2"/>
    <line id="Line_78" data-name="Line 78" x2="19.717" transform="translate(8.699 12.758)" fill="none" stroke="#3e3e44" stroke-linecap="round" stroke-width="1.2"/>
    <line id="Line_79" data-name="Line 79" x2="2.296" transform="translate(26.119 15.658)" fill="none" stroke="#3e3e44" stroke-linecap="round" stroke-width="1.2"/>
    <line id="Line_80" data-name="Line 80" x2="15.078" transform="translate(8.699 15.658)" fill="none" stroke="#3e3e44" stroke-linecap="round" stroke-width="1.2"/>
  </g>
</svg>
