<svg xmlns="http://www.w3.org/2000/svg" width="30.756" height="29.742" viewBox="0 0 30.756 29.742">
  <g id="Group_350" data-name="Group 350" transform="translate(0.6 0.605)">
    <path id="Path_157" data-name="Path 157" d="M32.671,15.7a1.291,1.291,0,0,1,.454-.454L47.542,6.711a1.265,1.265,0,0,1,1.751.481l4.782,8.49" transform="translate(-30.633 -6.534)" fill="none" stroke="#3e3e44" stroke-linejoin="round" stroke-width="1.2"/>
    <line id="Line_64" data-name="Line 64" y1="3.656" x2="6.176" transform="translate(13.444 2.362)" fill="none" stroke="#3e3e44" stroke-linecap="round" stroke-linejoin="round" stroke-width="1.2"/>
    <line id="Line_65" data-name="Line 65" y1="1.72" x2="2.906" transform="translate(8.156 7.427)" fill="none" stroke="#3e3e44" stroke-linecap="round" stroke-linejoin="round" stroke-width="1.2"/>
    <line id="Line_66" data-name="Line 66" y1="2.565" x2="4.334" transform="translate(16.566 4.636)" fill="none" stroke="#3e3e44" stroke-linecap="round" stroke-linejoin="round" stroke-width="1.2"/>
    <path id="Path_158" data-name="Path 158" d="M264.009,215.211h-7.134a2.038,2.038,0,0,1-2.038-2.038v-2.038a2.038,2.038,0,0,1,2.038-2.038h7.134a1.019,1.019,0,0,1,1.019,1.019v4.077A1.019,1.019,0,0,1,264.009,215.211Z" transform="translate(-235.472 -193.299)" fill="none" stroke="#3e3e44" stroke-linecap="round" stroke-linejoin="round" stroke-width="1.2"/>
    <path id="Path_159" data-name="Path 159" d="M286.789,233.24a1.274,1.274,0,1,0-1.274,1.274A1.274,1.274,0,0,0,286.789,233.24Z" transform="translate(-262.583 -214.385)" fill="none" stroke="#3e3e44" stroke-linecap="round" stroke-linejoin="round" stroke-width="1.2"/>
    <path id="Path_160" data-name="Path 160" d="M35.071,119.6v4.558a1.95,1.95,0,0,1-1.946,1.953H8.48a1.95,1.95,0,0,1-1.946-1.953V105.274" transform="translate(-6.534 -97.574)" fill="none" stroke="#3e3e44" stroke-linecap="round" stroke-linejoin="round" stroke-width="1.2"/>
    <path id="Path_161" data-name="Path 161" d="M15.131,71.876H8.48a1.911,1.911,0,1,0,0,3.822H33.126a1.929,1.929,0,0,1,1.946,1.911v4.969" transform="translate(-6.534 -66.78)" fill="none" stroke="#3e3e44" stroke-linecap="round" stroke-linejoin="round" stroke-width="1.2"/>
    <path id="Path_162" data-name="Path 162" d="M282.638,75.7V73.788a1.929,1.929,0,0,0-1.946-1.911h-2.838" transform="translate(-256.695 -66.781)" fill="none" stroke="#3e3e44" stroke-linecap="round" stroke-linejoin="round" stroke-width="1.2"/>
    <line id="Line_67" data-name="Line 67" y2="2.038" transform="translate(27.518 17.836)" fill="none" stroke="#3e3e44" stroke-linecap="round" stroke-linejoin="round" stroke-width="1.2"/>
  </g>
</svg>
