<svg id="Group_349" data-name="Group 349" xmlns="http://www.w3.org/2000/svg" width="35.015" height="23.343" viewBox="0 0 35.015 23.343">
  <path id="Path_170" data-name="Path 170" d="M30.848,219.846H4.167a2.914,2.914,0,0,1-2.427-1.3L.1,216.083a.584.584,0,0,1,.486-.907h10.5a.584.584,0,0,1,.413.171l.6.6a1.354,1.354,0,0,0,.953.394h8.9a1.352,1.352,0,0,0,.952-.394l.6-.6a.583.583,0,0,1,.413-.171h10.5a.584.584,0,0,1,.486.907l-1.641,2.463a2.914,2.914,0,0,1-2.428,1.3m-29.174-3.5L2.711,217.9a1.749,1.749,0,0,0,1.456.779H30.848a1.749,1.749,0,0,0,1.457-.78l1.037-1.555H24.169l-.431.431a2.527,2.527,0,0,1-1.778.736h-8.9a2.528,2.528,0,0,1-1.779-.737l-.43-.43Z" transform="translate(0 -196.503)" fill="#3a3a3c"/>
  <path id="Path_171" data-name="Path 171" d="M67.776,17.506a.584.584,0,0,1-.584-.584V1.167H41.515V16.923a.584.584,0,0,1-1.167,0V.584A.584.584,0,0,1,40.932,0H67.776a.584.584,0,0,1,.584.584V16.923a.584.584,0,0,1-.584.584" transform="translate(-36.846 0)" fill="#3a3a3c"/>
  <path id="Path_172" data-name="Path 172" d="M154.946,54.925a.583.583,0,0,1-.487-.262l-2.878-4.35-2.718,1.923a.584.584,0,0,1-.921-.476V40.919a.584.584,0,0,1,.87-.509l9.337,5.252a.584.584,0,0,1-.075,1.053l-2.968,1.154,3.216,4.107a.584.584,0,0,1-.129.841l-2.918,2.006a.583.583,0,0,1-.331.1m-3.21-6.019a.583.583,0,0,1,.487.262l2.882,4.357,1.917-1.318L153.7,47.969a.584.584,0,0,1,.248-.9l2.55-.991-7.391-4.158v8.715l2.289-1.619a.583.583,0,0,1,.337-.107" transform="translate(-135.104 -36.835)" fill="#3a3a3c"/>
</svg>
