<svg id="Group_351" data-name="Group 351" xmlns="http://www.w3.org/2000/svg" xmlns:xlink="http://www.w3.org/1999/xlink" width="40.041" height="25.359" viewBox="0 0 40.041 25.359">
  <defs>
    <clipPath id="clip-path">
      <rect id="Rectangle_366" data-name="Rectangle 366" width="40.041" height="25.359" fill="none" stroke="#707070" stroke-width="1.2"/>
    </clipPath>
  </defs>
  <g id="Group_337" data-name="Group 337" clip-path="url(#clip-path)">
    <path id="Path_163" data-name="Path 163" d="M215.381,22.87h-13.8a5.284,5.284,0,0,0-4.016,1.823l-1.536,1.8" transform="translate(-176.007 -20.534)" fill="none" stroke="#3e3e44" stroke-linecap="round" stroke-linejoin="round" stroke-width="1.2"/>
    <path id="Path_164" data-name="Path 164" d="M218.479,58.808l-4.022,3.861a2,2,0,0,0,0,2.911,2.207,2.207,0,0,0,3.031,0l2.815-2.7a4.662,4.662,0,0,0,6.063,0" transform="translate(-191.99 -52.802)" fill="none" stroke="#3e3e44" stroke-linecap="round" stroke-linejoin="round" stroke-width="1.2"/>
    <path id="Path_165" data-name="Path 165" d="M332.78,144.962h-3.266a5.792,5.792,0,0,1-2.734,2.606" transform="translate(-293.406 -130.157)" fill="none" stroke="#3e3e44" stroke-linecap="round" stroke-linejoin="round" stroke-width="1.2"/>
    <line id="Line_68" data-name="Line 68" x1="17.351" transform="translate(6.006 16.684)" fill="none" stroke="#3e3e44" stroke-linecap="round" stroke-linejoin="round" stroke-width="1.2"/>
    <line id="Line_69" data-name="Line 69" x1="5.339" transform="translate(27.361 16.684)" fill="none" stroke="#3e3e44" stroke-linecap="round" stroke-linejoin="round" stroke-width="1.2"/>
    <line id="Line_70" data-name="Line 70" x1="26.694" transform="translate(6.006 20.354)" fill="none" stroke="#3e3e44" stroke-linecap="round" stroke-linejoin="round" stroke-width="1.2"/>
    <line id="Line_71" data-name="Line 71" y2="16.016" transform="translate(39.374 0.667)" fill="none" stroke="#3e3e44" stroke-linecap="round" stroke-linejoin="round" stroke-width="1.2"/>
    <line id="Line_72" data-name="Line 72" x2="12.68" transform="translate(0.667 13.347)" fill="none" stroke="#3e3e44" stroke-linecap="round" stroke-linejoin="round" stroke-width="1.2"/>
    <line id="Line_73" data-name="Line 73" x2="1.335" transform="translate(0.667 10.01)" fill="none" stroke="#3e3e44" stroke-linecap="round" stroke-linejoin="round" stroke-width="1.2"/>
    <line id="Line_74" data-name="Line 74" x2="6.674" transform="translate(4.004 10.01)" fill="none" stroke="#3e3e44" stroke-linecap="round" stroke-linejoin="round" stroke-width="1.2"/>
    <path id="Path_166" data-name="Path 166" d="M52.274,115.242v6.773a1.869,1.869,0,0,0,1.869,1.869H78.434a1.869,1.869,0,0,0,1.869-1.869V110.474" transform="translate(-46.935 -99.191)" fill="none" stroke="#3e3e44" stroke-linecap="round" stroke-linejoin="round" stroke-width="1.2"/>
    <path id="Path_167" data-name="Path 167" d="M74.822,58.808H54.143a1.869,1.869,0,0,0-1.869,1.869v2.136" transform="translate(-46.935 -52.802)" fill="none" stroke="#3e3e44" stroke-linecap="round" stroke-linejoin="round" stroke-width="1.2"/>
  </g>
</svg>
